M48
; DRILL file KiCad 10.0.0 date 2026-06-04T17:08:39
; FORMAT={-:-/ absolute / inch / decimal}
; #@! TF.CreationDate,2026-06-04T17:08:39+10:00
; #@! TF.GenerationSoftware,Kicad,Pcbnew,10.0.0
; #@! TF.FileFunction,Plated,1,4,PTH
FMAT,2
INCH
; #@! TA.AperFunction,Plated,PTH,ViaDrill
T1C0.0118
; #@! TA.AperFunction,Plated,PTH,ComponentDrill
T2C0.0236
; #@! TA.AperFunction,Plated,PTH,ComponentDrill
T3C0.0394
; #@! TA.AperFunction,Plated,PTH,ComponentDrill
T4C0.0472
; #@! TA.AperFunction,Plated,PTH,ComponentDrill
T5C0.0630
; #@! TA.AperFunction,Plated,PTH,ComponentDrill
T6C0.0689
%
G90
G05
T1
X5.0787Y-3.1594
X5.0787Y-3.2283
X5.0787Y-3.2874
X5.0787Y-3.3465
X5.0886Y-3.5138
X5.1083Y-1.939
X5.1083Y-1.9882
X5.1083Y-2.0374
X5.1083Y-2.0965
X5.1083Y-2.1457
X5.1083Y-2.1949
X5.1083Y-2.2441
X5.1378Y-3.1594
X5.1378Y-3.2283
X5.1378Y-3.2874
X5.1378Y-3.3465
X5.2362Y-1.9193
X5.2461Y-2.5689
X5.2461Y-2.6378
X5.2461Y-2.6969
X5.2461Y-2.7559
X5.2461Y-2.8248
X5.2461Y-2.8937
X5.2461Y-2.9528
X5.2461Y-3.0118
X5.2461Y-3.7697
X5.3051Y-2.5689
X5.3051Y-2.6378
X5.3051Y-2.6969
X5.3051Y-2.7559
X5.3051Y-2.8248
X5.3051Y-2.8937
X5.3051Y-2.9528
X5.3051Y-3.0118
X5.315Y-3.7697
X5.3248Y-3.4646
X5.3421Y-1.9028
X5.3494Y-1.7933
X5.374Y-1.939
X5.3896Y-2.0541
X5.3937Y-1.9882
X5.3937Y-3.0512
X5.3937Y-3.1004
X5.3937Y-3.4646
X5.3937Y-3.5236
X5.3937Y-3.5925
X5.3937Y-3.6516
X5.3937Y-3.7106
X5.3937Y-3.7697
X5.4035Y-1.8307
X5.4134Y-2.1161
X5.4134Y-3.1988
X5.4528Y-1.811
X5.4626Y-1.6339
X5.4626Y-3.0512
X5.4626Y-3.1004
X5.4626Y-3.4646
X5.4626Y-3.5236
X5.4626Y-3.5925
X5.4626Y-3.6516
X5.4626Y-3.7106
X5.4626Y-3.7697
X5.4921Y-1.8209
X5.502Y-1.9488
X5.5118Y-1.7913
X5.515Y-3.2472
X5.5194Y-3.2784
X5.5217Y-1.7224
X5.5315Y-1.6339
X5.5413Y-3.4646
X5.5413Y-3.5236
X5.5413Y-3.5925
X5.5413Y-3.6516
X5.5413Y-3.7106
X5.5413Y-3.7697
X5.5512Y-3.0512
X5.5512Y-3.1004
X5.6004Y-1.6339
X5.6004Y-2.2638
X5.6079Y-1.8338
X5.6102Y-2.0374
X5.6102Y-2.9823
X5.6102Y-3.4646
X5.6102Y-3.5236
X5.6102Y-3.5925
X5.6102Y-3.6516
X5.6102Y-3.7106
X5.6102Y-3.7697
X5.6398Y-2.9232
X5.6496Y-2.313
X5.6594Y-3.0512
X5.6594Y-3.1004
X5.6693Y-1.6339
X5.6693Y-2.0374
X5.6693Y-3.4646
X5.6693Y-3.5236
X5.6693Y-3.5925
X5.6693Y-3.6516
X5.6693Y-3.7106
X5.6693Y-3.7697
X5.689Y-1.7274
X5.6988Y-2.9823
X5.7028Y-2.2579
X5.7087Y-2.313
X5.7087Y-2.3917
X5.7087Y-2.4409
X5.7087Y-2.5
X5.7087Y-2.5689
X5.7087Y-2.628
X5.7087Y-2.687
X5.7087Y-2.7461
X5.7087Y-2.8051
X5.7283Y-1.8307
X5.7283Y-3.4646
X5.7283Y-3.5236
X5.7283Y-3.5925
X5.7283Y-3.6516
X5.7283Y-3.7106
X5.7283Y-3.7697
X5.7382Y-1.6339
X5.748Y-3.0512
X5.748Y-3.1004
X5.7579Y-1.7913
X5.7677Y-2.2835
X5.7677Y-2.3622
X5.7677Y-2.4409
X5.7677Y-2.5
X5.7677Y-2.5689
X5.7677Y-2.628
X5.7677Y-2.687
X5.7677Y-2.7461
X5.7677Y-2.8051
X5.7677Y-2.8642
X5.7972Y-3.4646
X5.7972Y-3.5236
X5.7972Y-3.5925
X5.7972Y-3.6516
X5.7972Y-3.7106
X5.7972Y-3.7697
X5.8059Y-1.9104
X5.8071Y-1.6339
X5.8071Y-2.0965
X5.8071Y-2.9035
X5.8169Y-2.994
X5.8209Y-3.1093
X5.8366Y-2.628
X5.8366Y-2.687
X5.8366Y-2.7461
X5.8366Y-2.8051
X5.8366Y-2.8642
X5.8465Y-2.0866
X5.8477Y-1.928
X5.8566Y-2.2284
X5.8642Y-2.059
X5.8652Y-2.9469
X5.8661Y-3.4646
X5.8661Y-3.5236
X5.8661Y-3.5925
X5.8661Y-3.6516
X5.8661Y-3.7106
X5.8661Y-3.7697
X5.876Y-1.6339
X5.876Y-1.7815
X5.8878Y-2.2241
X5.895Y-1.7564
X5.8957Y-2.4705
X5.8957Y-2.7461
X5.8957Y-2.8051
X5.8957Y-2.8642
X5.9231Y-2.2289
X5.9252Y-3.4646
X5.9252Y-3.5236
X5.9252Y-3.5925
X5.9252Y-3.6516
X5.9252Y-3.7106
X5.9252Y-3.7697
X5.9258Y-2.185
X5.9258Y-2.1396
X5.9268Y-2.5464
X5.9321Y-1.878
X5.9449Y-1.6339
X5.9616Y-2.5116
X5.9646Y-2.7756
X5.9707Y-2.5932
X5.9783Y-1.8801
X5.9843Y-3.4646
X5.9843Y-3.5236
X5.9843Y-3.5925
X5.9843Y-3.6516
X5.9843Y-3.7106
X5.9843Y-3.7697
X6.0055Y-2.5584
X6.0138Y-2.6378
X6.0236Y-2.0472
X6.0486Y-2.603
X6.0531Y-2.0866
X6.0531Y-2.2146
X6.063Y-1.9783
X6.063Y-3.6516
X6.063Y-3.7106
X6.063Y-3.7697
X6.0689Y-2.376
X6.0728Y-1.939
X6.0941Y-2.3571
X6.1024Y-2.0472
X6.1024Y-2.0866
X6.1024Y-2.2146
X6.122Y-1.9193
X6.122Y-1.9488
X6.1319Y-3.6516
X6.1319Y-3.7106
X6.1319Y-3.7697
X6.1516Y-2.0472
X6.1516Y-2.0866
X6.1516Y-2.6673
X6.1516Y-2.7165
X6.1516Y-3.0217
X6.1516Y-3.0906
X6.1516Y-3.1594
X6.1575Y-2.9537
X6.1614Y-2.8445
X6.1614Y-2.8937
X6.1762Y-1.8238
X6.1909Y-1.6297
X6.1909Y-1.6711
X6.1909Y-1.7224
X6.1909Y-2.3917
X6.2106Y-3.6516
X6.2106Y-3.7106
X6.2106Y-3.7697
X6.2205Y-2.6673
X6.2205Y-2.7165
X6.2303Y-2.8445
X6.2303Y-2.8937
X6.2303Y-3.0217
X6.2303Y-3.0906
X6.2303Y-3.1594
X6.2303Y-3.2283
X6.2402Y-1.811
X6.2598Y-1.7224
X6.2795Y-1.6297
X6.2795Y-1.6711
X6.2795Y-3.6516
X6.2795Y-3.7106
X6.2795Y-3.7697
X6.2894Y-2.6673
X6.2894Y-2.7165
X6.2992Y-2.8445
X6.2992Y-2.8937
X6.2992Y-2.9528
X6.2992Y-3.0217
X6.2992Y-3.0906
X6.2992Y-3.1594
X6.2992Y-3.2283
X6.2992Y-3.2972
X6.3287Y-1.9016
X6.3386Y-3.6516
X6.3386Y-3.7106
X6.3386Y-3.7697
X6.3484Y-2.2933
X6.3533Y-2.1998
X6.3583Y-2.7165
X6.3681Y-2.8445
X6.3681Y-2.8937
X6.3681Y-2.9528
X6.3681Y-3.0217
X6.3681Y-3.0906
X6.3681Y-3.1594
X6.3681Y-3.2283
X6.3681Y-3.2972
X6.378Y-2.4016
X6.3917Y-2.6427
X6.3976Y-2.0472
X6.3976Y-3.6516
X6.3976Y-3.7106
X6.3976Y-3.7697
X6.4272Y-1.998
X6.4469Y-3.0217
X6.4469Y-3.0906
X6.4469Y-3.1594
X6.4469Y-3.2283
X6.4469Y-3.2972
X6.4567Y-2.0768
X6.4665Y-3.6516
X6.4665Y-3.7106
X6.4665Y-3.7697
X6.4764Y-2.4606
X6.4961Y-2.6969
X6.5059Y-2.3164
X6.5256Y-3.0217
X6.5256Y-3.0906
X6.5256Y-3.1594
X6.5256Y-3.2283
X6.5274Y-2.7785
X6.5354Y-1.7224
X6.5354Y-3.6516
X6.5354Y-3.7106
X6.5354Y-3.7697
X6.5846Y-2.0472
X6.5872Y-2.3844
X6.5915Y-1.9567
X6.5945Y-3.6516
X6.5945Y-3.7106
X6.5945Y-3.7697
X6.6024Y-2.246
X6.6043Y-3.1594
X6.6142Y-2.3164
X6.623Y-2.6309
X6.624Y-2.3819
X6.624Y-2.5906
X6.626Y-2.5472
X6.627Y-2.503
X6.6467Y-2.4144
X6.6535Y-1.7224
X6.6535Y-3.6516
X6.6535Y-3.7106
X6.6535Y-3.7697
X6.6939Y-2.5049
X6.6939Y-2.5463
X6.6949Y-2.5925
X6.6949Y-2.6339
X6.7008Y-2.4134
X6.7195Y-1.813
X6.7323Y-3.5236
X6.7323Y-3.5827
X6.7323Y-3.6516
X6.7323Y-3.7106
X6.7323Y-3.7697
X6.7362Y-2.374
X6.7382Y-2.5039
X6.7392Y-2.5463
X6.7392Y-2.5915
X6.7402Y-2.6339
X6.752Y-1.7134
X6.7608Y-2.3937
X6.7795Y-2.8583
X6.7819Y-2.8269
X6.7867Y-2.4117
X6.7913Y-3.5236
X6.7913Y-3.5827
X6.7913Y-3.6516
X6.7913Y-3.7106
X6.7913Y-3.7697
X6.812Y-2.9301
X6.8209Y-1.9193
X6.8209Y-1.9783
X6.8209Y-2.0374
X6.8209Y-2.0965
X6.8209Y-2.1555
X6.8209Y-2.2146
X6.8209Y-2.2736
X6.8416Y-2.9931
X6.8504Y-3.5236
X6.8504Y-3.5827
X6.8504Y-3.6516
X6.8504Y-3.7106
X6.8504Y-3.7697
X6.8864Y-2.5307
X6.8898Y-1.9193
X6.8898Y-1.9783
X6.8898Y-2.0374
X6.8898Y-2.0965
X6.8898Y-2.1555
X6.8898Y-2.2146
X6.8898Y-2.2736
X6.8898Y-2.7362
X6.8938Y-3.0787
X6.8976Y-2.4803
X6.9094Y-2.7756
X6.9094Y-2.8839
X6.9094Y-2.9232
X6.9291Y-3.6516
X6.9291Y-3.7106
X6.9291Y-3.7697
X6.9439Y-2.4006
X6.9488Y-1.9193
X6.9488Y-1.9783
X6.9488Y-2.0374
X6.9488Y-2.0965
X6.9488Y-2.1555
X6.9488Y-2.2146
X6.9587Y-2.7756
X6.9587Y-2.8839
X6.9587Y-2.9232
X6.9587Y-2.9626
X6.9882Y-3.6516
X6.9882Y-3.7106
X6.9882Y-3.7697
X6.998Y-2.5295
X7.0079Y-3.0118
X7.0177Y-2.0965
X7.0177Y-2.1555
X7.0177Y-2.8839
X7.0276Y-2.7756
X7.0472Y-2.5295
X7.0472Y-3.6516
X7.0472Y-3.7106
X7.0472Y-3.7697
X7.0571Y-2.2933
X7.0669Y-2.4114
X7.0669Y-3.0118
X7.0768Y-2.7756
X7.0935Y-1.6742
X7.126Y-3.7106
X7.126Y-3.7697
X7.1358Y-2.2047
X7.1358Y-2.2441
X7.1358Y-2.2933
X7.1555Y-2.6969
X7.1555Y-2.7362
X7.1555Y-2.7756
X7.1555Y-2.8839
X7.1555Y-2.9331
X7.1555Y-2.9724
X7.1555Y-3.0118
X7.1555Y-3.5236
X7.1555Y-3.5827
X7.1555Y-3.6417
X7.1654Y-2.4409
X7.1654Y-2.4902
X7.1654Y-2.5295
X7.1772Y-2.5768
X7.185Y-2.2146
X7.185Y-2.2933
X7.185Y-3.7106
X7.185Y-3.7697
X7.1929Y-2.6594
X7.1951Y-2.336
X7.2146Y-3.5236
X7.2146Y-3.5827
X7.2146Y-3.6417
X7.2244Y-2.2146
X7.2244Y-2.7756
X7.2283Y-2.3465
X7.2283Y-2.6457
X7.2441Y-3.7106
X7.2441Y-3.7697
X7.2635Y-2.6006
X7.264Y-2.6367
X7.3031Y-1.9291
X7.3031Y-1.9587
X7.3031Y-1.9882
X7.3031Y-2.0177
X7.3031Y-2.0472
X7.3031Y-2.8937
X7.3031Y-2.9232
X7.3031Y-2.9528
X7.3031Y-2.9823
X7.3031Y-3.0118
X7.313Y-2.4016
X7.313Y-2.4311
X7.313Y-2.4606
X7.313Y-2.4902
X7.313Y-2.5197
X7.313Y-3.3366
X7.313Y-3.3858
X7.313Y-3.4449
X7.313Y-3.5039
X7.313Y-3.622
X7.3327Y-3.7106
X7.3327Y-3.7697
X7.3425Y-1.9291
X7.3425Y-1.9587
X7.3425Y-1.9882
X7.3425Y-2.0177
X7.3425Y-2.0472
X7.3425Y-2.8937
X7.3425Y-2.9232
X7.3425Y-2.9528
X7.3425Y-2.9823
X7.3425Y-3.0118
X7.3524Y-2.4016
X7.3524Y-2.4311
X7.3524Y-2.4606
X7.3524Y-2.4902
X7.3524Y-2.5197
X7.372Y-3.3366
X7.372Y-3.3858
X7.372Y-3.4449
X7.372Y-3.5039
X7.372Y-3.622
X7.3819Y-1.9291
X7.3819Y-1.9587
X7.3819Y-1.9882
X7.3819Y-2.0177
X7.3819Y-2.0472
X7.3819Y-2.8937
X7.3819Y-2.9232
X7.3819Y-2.9528
X7.3819Y-2.9823
X7.3819Y-3.0118
X7.3917Y-1.8012
X7.3917Y-2.4016
X7.3917Y-2.4311
X7.3917Y-2.4606
X7.3917Y-2.4902
X7.3917Y-2.5197
X7.3917Y-3.7106
X7.3917Y-3.7697
X7.4213Y-1.6339
X7.4213Y-1.9291
X7.4213Y-1.9587
X7.4213Y-1.9882
X7.4213Y-2.0177
X7.4213Y-2.0472
X7.4213Y-2.8937
X7.4213Y-2.9232
X7.4213Y-2.9528
X7.4213Y-2.9823
X7.4213Y-3.0118
X7.4311Y-2.4016
X7.4311Y-2.4311
X7.4311Y-2.4606
X7.4311Y-2.4902
X7.4311Y-2.5197
X7.4311Y-3.3366
X7.4311Y-3.3858
X7.4311Y-3.4449
X7.4311Y-3.5039
X7.4311Y-3.622
X7.4508Y-3.7106
X7.4508Y-3.7697
X7.4803Y-1.6339
X7.4902Y-3.3366
X7.4902Y-3.3858
X7.4902Y-3.4449
X7.4902Y-3.5039
X7.4902Y-3.563
X7.4902Y-3.622
X7.5197Y-1.8504
X7.5295Y-2.1555
X7.5295Y-2.185
X7.5295Y-2.2146
X7.5295Y-2.2441
X7.5295Y-2.2736
X7.5295Y-3.1201
X7.5295Y-3.1496
X7.5295Y-3.1791
X7.5295Y-3.2087
X7.5295Y-3.2382
X7.5295Y-3.7106
X7.5295Y-3.7697
X7.5394Y-1.6339
X7.5492Y-2.6575
X7.5492Y-2.687
X7.5492Y-2.7165
X7.5492Y-2.7461
X7.5492Y-2.7756
X7.5492Y-3.3169
X7.5492Y-3.3661
X7.5591Y-3.563
X7.5591Y-3.622
X7.5689Y-1.9193
X7.5689Y-2.0079
X7.5689Y-2.1555
X7.5689Y-2.185
X7.5689Y-2.2146
X7.5689Y-2.2441
X7.5689Y-2.2736
X7.5689Y-3.1201
X7.5689Y-3.1496
X7.5689Y-3.1791
X7.5689Y-3.2087
X7.5689Y-3.2382
X7.575Y-2.9581
X7.5787Y-2.8839
X7.5787Y-3.0315
X7.5886Y-2.0768
X7.5886Y-2.6575
X7.5886Y-2.687
X7.5886Y-2.7165
X7.5886Y-2.7461
X7.5886Y-2.7756
X7.5886Y-3.7106
X7.5886Y-3.7697
X7.5984Y-1.6339
X7.5984Y-2.372
X7.5984Y-2.5591
X7.6083Y-2.1555
X7.6083Y-2.185
X7.6083Y-2.2146
X7.6083Y-2.2441
X7.6083Y-2.2736
X7.6083Y-3.1201
X7.6083Y-3.1496
X7.6083Y-3.1791
X7.6083Y-3.2087
X7.6083Y-3.2382
X7.6083Y-3.3169
X7.6083Y-3.3661
X7.6181Y-1.6732
X7.628Y-2.6575
X7.628Y-2.687
X7.628Y-2.7165
X7.628Y-2.7461
X7.628Y-2.7756
X7.628Y-3.563
X7.628Y-3.622
X7.6378Y-1.9193
X7.6476Y-2.0768
X7.6476Y-2.1555
X7.6476Y-2.185
X7.6476Y-2.2146
X7.6476Y-2.2441
X7.6476Y-2.2736
X7.6476Y-3.1201
X7.6476Y-3.1496
X7.6476Y-3.1791
X7.6476Y-3.2087
X7.6476Y-3.2382
X7.6476Y-3.7106
X7.6476Y-3.7697
X7.6575Y-1.7224
X7.6575Y-2.372
X7.6575Y-2.5591
X7.6673Y-1.6339
X7.6673Y-1.6831
X7.6673Y-2.6575
X7.6673Y-2.687
X7.6673Y-2.7165
X7.6673Y-2.7461
X7.6673Y-2.7756
X7.6673Y-3.3169
X7.6673Y-3.3661
X7.6673Y-3.4252
X7.6673Y-3.4941
X7.6772Y-3.0315
X7.7067Y-2.1358
X7.7067Y-2.8839
X7.7067Y-3.563
X7.7165Y-1.9193
X7.7165Y-1.9783
X7.7165Y-2.0374
X7.7165Y-2.9429
X7.7362Y-2.3228
X7.7362Y-2.6083
X7.7362Y-3.4252
X7.7362Y-3.4941
X7.7461Y-2.8051
X7.7756Y-3.1004
X7.784Y-2.8811
X7.7854Y-1.9193
X7.7854Y-1.9783
X7.7854Y-2.0374
X7.7854Y-2.185
X7.7953Y-2.3228
X7.8051Y-2.5984
X7.8051Y-2.8051
X7.8051Y-3.4252
X7.8051Y-3.4941
X7.8346Y-2.9331
X7.8642Y-1.9193
X7.8642Y-1.9783
X7.8642Y-2.0374
X7.8642Y-2.1063
X7.8642Y-2.1752
X7.8642Y-2.3228
X7.8642Y-2.372
X7.8642Y-2.4311
X7.874Y-2.5984
X7.874Y-2.6772
X7.874Y-2.7461
X7.874Y-2.8051
X7.874Y-2.8839
X7.874Y-3.002
X7.874Y-3.1004
T3
X5.2051Y-2.185
X5.3051Y-2.185
T4
X5.434Y-2.8675
X5.434Y-2.9659
X5.436Y-2.6181
X5.436Y-2.7165
X5.4366Y-2.3656
X5.4366Y-2.464
X5.5324Y-2.8675
X5.5324Y-2.9659
X5.5344Y-2.6181
X5.5344Y-2.7165
X5.535Y-2.3656
X5.535Y-2.464
T5
X5.1513Y-2.8675
X5.1533Y-2.6181
X5.1539Y-2.3656
X7.7835Y-2.1079
X7.7835Y-2.4079
X7.7835Y-2.7079
X7.7835Y-3.0079
X7.7835Y-3.3079
T6
X5.1513Y-2.9659
X5.1533Y-2.7165
X5.1539Y-2.464
T2
G00X5.0957Y-3.0937
M15
G01X5.072Y-3.0937
M16
G05
G00X5.0957Y-3.4339
M15
G01X5.072Y-3.4339
M16
G05
G00X5.2701Y-3.0937
M15
G01X5.2268Y-3.0937
M16
G05
G00X5.2701Y-3.4339
M15
G01X5.2268Y-3.4339
M16
G05
M30
