%TF.GenerationSoftware,KiCad,Pcbnew,10.0.0*%
%TF.CreationDate,2026-06-04T17:08:39+10:00*%
%TF.ProjectId,bench_stm32_esc,62656e63-685f-4737-946d-33325f657363,rev?*%
%TF.SameCoordinates,Original*%
%TF.FileFunction,Soldermask,Top*%
%TF.FilePolarity,Negative*%
%FSLAX46Y46*%
G04 Gerber Fmt 4.6, Leading zero omitted, Abs format (unit mm)*
G04 Created by KiCad (PCBNEW 10.0.0) date 2026-06-04 17:08:39*
%MOMM*%
%LPD*%
G01*
G04 APERTURE LIST*
G04 Aperture macros list*
%AMRoundRect*
0 Rectangle with rounded corners*
0 $1 Rounding radius*
0 $2 $3 $4 $5 $6 $7 $8 $9 X,Y pos of 4 corners*
0 Add a 4 corners polygon primitive as box body*
4,1,4,$2,$3,$4,$5,$6,$7,$8,$9,$2,$3,0*
0 Add four circle primitives for the rounded corners*
1,1,$1+$1,$2,$3*
1,1,$1+$1,$4,$5*
1,1,$1+$1,$6,$7*
1,1,$1+$1,$8,$9*
0 Add four rect primitives between the rounded corners*
20,1,$1+$1,$2,$3,$4,$5,0*
20,1,$1+$1,$4,$5,$6,$7,0*
20,1,$1+$1,$6,$7,$8,$9,0*
20,1,$1+$1,$8,$9,$2,$3,0*%
G04 Aperture macros list end*
%ADD10R,1.500000X1.500000*%
%ADD11RoundRect,0.159000X-0.159000X-0.189000X0.159000X-0.189000X0.159000X0.189000X-0.159000X0.189000X0*%
%ADD12RoundRect,0.239000X-0.239000X-0.274000X0.239000X-0.274000X0.239000X0.274000X-0.239000X0.274000X0*%
%ADD13RoundRect,0.159000X0.189000X-0.159000X0.189000X0.159000X-0.189000X0.159000X-0.189000X-0.159000X0*%
%ADD14RoundRect,0.159000X0.159000X0.189000X-0.159000X0.189000X-0.159000X-0.189000X0.159000X-0.189000X0*%
%ADD15RoundRect,0.159000X-0.189000X0.159000X-0.189000X-0.159000X0.189000X-0.159000X0.189000X0.159000X0*%
%ADD16RoundRect,0.150000X-0.512500X-0.150000X0.512500X-0.150000X0.512500X0.150000X-0.512500X0.150000X0*%
%ADD17RoundRect,0.159000X-0.021213X0.246073X-0.246073X0.021213X0.021213X-0.246073X0.246073X-0.021213X0*%
%ADD18RoundRect,0.093750X0.093750X-0.156250X0.093750X0.156250X-0.093750X0.156250X-0.093750X-0.156250X0*%
%ADD19RoundRect,0.075000X0.075000X-0.250000X0.075000X0.250000X-0.075000X0.250000X-0.075000X-0.250000X0*%
%ADD20RoundRect,0.075000X-0.700000X0.075000X-0.700000X-0.075000X0.700000X-0.075000X0.700000X0.075000X0*%
%ADD21RoundRect,0.075000X-0.075000X0.700000X-0.075000X-0.700000X0.075000X-0.700000X0.075000X0.700000X0*%
%ADD22R,0.680000X0.280000*%
%ADD23R,4.500000X1.650000*%
%ADD24R,0.220000X0.800000*%
%ADD25R,0.800000X0.220000*%
%ADD26R,4.500000X4.500000*%
%ADD27C,1.600000*%
%ADD28C,1.750000*%
%ADD29C,1.800000*%
%ADD30RoundRect,0.150000X-0.575000X0.150000X-0.575000X-0.150000X0.575000X-0.150000X0.575000X0.150000X0*%
%ADD31RoundRect,0.075000X-0.650000X0.075000X-0.650000X-0.075000X0.650000X-0.075000X0.650000X0.075000X0*%
%ADD32O,2.100000X1.000000*%
%ADD33O,1.600000X1.000000*%
%ADD34C,0.787400*%
%ADD35RoundRect,0.287778X0.489222X0.714222X-0.489222X0.714222X-0.489222X-0.714222X0.489222X-0.714222X0*%
%ADD36RoundRect,0.219000X-0.294000X0.219000X-0.294000X-0.219000X0.294000X-0.219000X0.294000X0.219000X0*%
%ADD37RoundRect,0.220000X-0.255000X0.220000X-0.255000X-0.220000X0.255000X-0.220000X0.255000X0.220000X0*%
%ADD38RoundRect,0.159000X0.246073X0.021213X0.021213X0.246073X-0.246073X-0.021213X-0.021213X-0.246073X0*%
%ADD39RoundRect,0.266521X0.346479X0.671479X-0.346479X0.671479X-0.346479X-0.671479X0.346479X-0.671479X0*%
%ADD40RoundRect,0.266521X0.671479X-0.346479X0.671479X0.346479X-0.671479X0.346479X-0.671479X-0.346479X0*%
%ADD41R,3.900000X1.600000*%
%ADD42RoundRect,0.220000X-0.220000X-0.255000X0.220000X-0.255000X0.220000X0.255000X-0.220000X0.255000X0*%
%ADD43RoundRect,0.266521X-0.671479X0.346479X-0.671479X-0.346479X0.671479X-0.346479X0.671479X0.346479X0*%
%ADD44R,1.400000X1.200000*%
%ADD45RoundRect,0.244000X-0.269000X0.244000X-0.269000X-0.244000X0.269000X-0.244000X0.269000X0.244000X0*%
%ADD46R,1.635000X2.700000*%
%ADD47RoundRect,0.102000X1.200000X-1.200000X1.200000X1.200000X-1.200000X1.200000X-1.200000X-1.200000X0*%
%ADD48C,2.604000*%
%ADD49RoundRect,0.159000X-0.246073X-0.021213X-0.021213X-0.246073X0.246073X0.021213X0.021213X0.246073X0*%
%ADD50RoundRect,0.261500X-0.476500X0.261500X-0.476500X-0.261500X0.476500X-0.261500X0.476500X0.261500X0*%
%ADD51R,1.700000X1.700000*%
%ADD52C,1.700000*%
%ADD53RoundRect,0.267317X-0.470683X0.280683X-0.470683X-0.280683X0.470683X-0.280683X0.470683X0.280683X0*%
%ADD54RoundRect,0.244000X-0.244000X-0.269000X0.244000X-0.269000X0.244000X0.269000X-0.244000X0.269000X0*%
%ADD55RoundRect,0.169000X0.219000X-0.169000X0.219000X0.169000X-0.219000X0.169000X-0.219000X-0.169000X0*%
%ADD56RoundRect,0.261500X0.261500X0.476500X-0.261500X0.476500X-0.261500X-0.476500X0.261500X-0.476500X0*%
%ADD57RoundRect,0.267317X0.470683X-0.280683X0.470683X0.280683X-0.470683X0.280683X-0.470683X-0.280683X0*%
%ADD58RoundRect,0.159000X0.021213X-0.246073X0.246073X-0.021213X-0.021213X0.246073X-0.246073X0.021213X0*%
%ADD59R,1.072000X0.532000*%
G04 APERTURE END LIST*
D10*
%TO.C,TP13*%
X158250000Y-75000000D03*
%TD*%
%TO.C,TP12*%
X154000000Y-80250000D03*
%TD*%
D11*
%TO.C,R56*%
X142675000Y-50425000D03*
X143675000Y-50425000D03*
%TD*%
D12*
%TO.C,D1*%
X142460000Y-49250000D03*
X144040000Y-49250000D03*
%TD*%
D13*
%TO.C,C64*%
X149388285Y-43855573D03*
X149388285Y-42855575D03*
%TD*%
D14*
%TO.C,C13*%
X165699999Y-67600000D03*
X164700001Y-67600000D03*
%TD*%
D15*
%TO.C,R24*%
X160375003Y-50200000D03*
X160375003Y-51199998D03*
%TD*%
D14*
%TO.C,C50*%
X144773919Y-54635217D03*
X143773921Y-54635217D03*
%TD*%
D13*
%TO.C,C11*%
X170200000Y-61299999D03*
X170200000Y-60300001D03*
%TD*%
D16*
%TO.C,U6*%
X151912500Y-76047501D03*
X151912500Y-76997500D03*
X151912500Y-77947499D03*
X154187500Y-77947499D03*
X154187500Y-76047501D03*
%TD*%
D17*
%TO.C,C47*%
X156653553Y-58846447D03*
X155946447Y-59553553D03*
%TD*%
D18*
%TO.C,U20*%
X137952500Y-83600000D03*
D19*
X138490000Y-83675000D03*
D18*
X139027500Y-83600000D03*
X139027500Y-81900000D03*
D19*
X138490000Y-81825000D03*
D18*
X137952500Y-81900000D03*
%TD*%
D20*
%TO.C,U7*%
X157575000Y-48450001D03*
X157575000Y-48950000D03*
X157575000Y-49450000D03*
X157575000Y-49950000D03*
X157575000Y-50450000D03*
X157575000Y-50950001D03*
X157575000Y-51450000D03*
X157575000Y-51950000D03*
X157575000Y-52450000D03*
X157575000Y-52950000D03*
X157575000Y-53449999D03*
X157575000Y-53950000D03*
X157575000Y-54450000D03*
X157575000Y-54950000D03*
X157575000Y-55450000D03*
X157575000Y-55949999D03*
D21*
X155649999Y-57875000D03*
X155150000Y-57875000D03*
X154650000Y-57875000D03*
X154150000Y-57875000D03*
X153650000Y-57875000D03*
X153149999Y-57875000D03*
X152650000Y-57875000D03*
X152150000Y-57875000D03*
X151650000Y-57875000D03*
X151150000Y-57875000D03*
X150650001Y-57875000D03*
X150150000Y-57875000D03*
X149650000Y-57875000D03*
X149150000Y-57875000D03*
X148650000Y-57875000D03*
X148150001Y-57875000D03*
D20*
X146225000Y-55949999D03*
X146225000Y-55450000D03*
X146225000Y-54950000D03*
X146225000Y-54450000D03*
X146225000Y-53950000D03*
X146225000Y-53449999D03*
X146225000Y-52950000D03*
X146225000Y-52450000D03*
X146225000Y-51950000D03*
X146225000Y-51450000D03*
X146225000Y-50950001D03*
X146225000Y-50450000D03*
X146225000Y-49950000D03*
X146225000Y-49450000D03*
X146225000Y-48950000D03*
X146225000Y-48450001D03*
D21*
X148150001Y-46525000D03*
X148650000Y-46525000D03*
X149150000Y-46525000D03*
X149650000Y-46525000D03*
X150150000Y-46525000D03*
X150650001Y-46525000D03*
X151150000Y-46525000D03*
X151650000Y-46525000D03*
X152150000Y-46525000D03*
X152650000Y-46525000D03*
X153149999Y-46525000D03*
X153650000Y-46525000D03*
X154150000Y-46525000D03*
X154650000Y-46525000D03*
X155150000Y-46525000D03*
X155649999Y-46525000D03*
%TD*%
D13*
%TO.C,C46*%
X144675003Y-56499998D03*
X144675003Y-55500000D03*
%TD*%
D14*
%TO.C,C15*%
X165688592Y-66587510D03*
X164688594Y-66587510D03*
%TD*%
D15*
%TO.C,C37*%
X150673984Y-82127254D03*
X150673984Y-83127252D03*
%TD*%
D17*
%TO.C,C45*%
X157219238Y-59412133D03*
X156512132Y-60119239D03*
%TD*%
D22*
%TO.C,U5*%
X148520000Y-81000000D03*
X148520000Y-81500000D03*
X148520000Y-82000000D03*
X148520000Y-82500000D03*
X149800000Y-82500000D03*
X149800000Y-82000000D03*
X149800000Y-81500000D03*
X149800000Y-81000000D03*
%TD*%
D11*
%TO.C,R30*%
X135890000Y-81450000D03*
X136890000Y-81450000D03*
%TD*%
D23*
%TO.C,C2*%
X187350003Y-58105000D03*
X178350001Y-58105000D03*
%TD*%
D13*
%TO.C,C49*%
X147275003Y-46499998D03*
X147275003Y-45500000D03*
%TD*%
D24*
%TO.C,U4*%
X167350000Y-68200000D03*
X167850000Y-68200000D03*
X168350000Y-68200000D03*
X168850000Y-68200000D03*
X169350000Y-68200000D03*
X169850000Y-68200000D03*
X170350000Y-68200000D03*
X170850000Y-68200000D03*
X171350000Y-68200000D03*
X171850000Y-68200000D03*
D25*
X172600000Y-67450000D03*
X172600000Y-66950000D03*
X172600000Y-66450000D03*
X172600000Y-65950000D03*
X172600000Y-65450000D03*
X172600000Y-64950000D03*
X172600000Y-64450000D03*
X172600000Y-63950000D03*
X172600000Y-63450000D03*
X172600000Y-62950000D03*
D24*
X171850000Y-62200000D03*
X171350000Y-62200000D03*
X170850000Y-62200000D03*
X170350000Y-62200000D03*
X169850000Y-62200000D03*
X169350000Y-62200000D03*
X168850000Y-62200000D03*
X168350000Y-62200000D03*
X167850000Y-62200000D03*
X167350000Y-62200000D03*
D25*
X166600000Y-62950000D03*
X166600000Y-63450000D03*
X166600000Y-63950000D03*
X166600000Y-64450000D03*
X166600000Y-64950000D03*
X166600000Y-65450000D03*
X166600000Y-65950000D03*
X166600000Y-66450000D03*
X166600000Y-66950000D03*
X166600000Y-67450000D03*
D26*
X169600000Y-65200000D03*
%TD*%
D13*
%TO.C,C83*%
X144775003Y-53799999D03*
X144775003Y-52800001D03*
%TD*%
D15*
%TO.C,C44*%
X159975003Y-48300001D03*
X159975003Y-49299999D03*
%TD*%
%TO.C,C48*%
X159075003Y-48300001D03*
X159075003Y-49299999D03*
%TD*%
%TO.C,R48*%
X150217986Y-43852909D03*
X150217986Y-42852911D03*
%TD*%
D27*
%TO.C,CN1*%
X130895000Y-66500000D03*
D28*
X130895000Y-69000000D03*
D29*
X140575000Y-69000000D03*
X140575000Y-66500000D03*
X138075000Y-69000000D03*
X138075000Y-66500000D03*
%TD*%
D27*
%TO.C,CN2*%
X130842500Y-72835000D03*
D28*
X130842500Y-75335000D03*
D29*
X140522500Y-75335000D03*
X140522500Y-72835000D03*
X138022500Y-75335000D03*
X138022500Y-72835000D03*
%TD*%
%TO.C,CN3*%
X140590133Y-62585527D03*
X140590133Y-60085527D03*
X138090133Y-62585527D03*
X138090133Y-60085527D03*
D27*
X130910133Y-60085527D03*
D28*
X130910133Y-62585527D03*
%TD*%
D30*
%TO.C,J2*%
X134225000Y-79650000D03*
X134225000Y-80449999D03*
D31*
X134224999Y-81650000D03*
X134225000Y-82650000D03*
X134225000Y-83150000D03*
X134224999Y-84150000D03*
D30*
X134225000Y-85350001D03*
X134225000Y-86150000D03*
X134225000Y-86150000D03*
X134225000Y-85350001D03*
D31*
X134225000Y-84650000D03*
X134225000Y-83650000D03*
X134225000Y-82150000D03*
X134225000Y-81150000D03*
D30*
X134225000Y-80449999D03*
X134225000Y-79650000D03*
D32*
X133310000Y-78580000D03*
D33*
X129130000Y-78580000D03*
D32*
X133310000Y-87220000D03*
D33*
X129130000Y-87220000D03*
%TD*%
D34*
%TO.C,J3*%
X164685002Y-57020000D03*
X163415002Y-57020000D03*
X164685002Y-55750000D03*
X163415002Y-55750000D03*
X164685002Y-54480000D03*
X163415002Y-54480000D03*
%TD*%
D23*
%TO.C,C4*%
X187350002Y-90465000D03*
X178350000Y-90465000D03*
%TD*%
D14*
%TO.C,R3*%
X170099999Y-53400000D03*
X169100001Y-53400000D03*
%TD*%
D15*
%TO.C,R21*%
X137224999Y-42035002D03*
X137224999Y-43035000D03*
%TD*%
D35*
%TO.C,S1*%
X165950004Y-46200000D03*
X161800002Y-46200000D03*
%TD*%
D23*
%TO.C,C3*%
X187350003Y-47205000D03*
X178350001Y-47205000D03*
%TD*%
D36*
%TO.C,TH2*%
X137200000Y-43999999D03*
X137200000Y-45640001D03*
%TD*%
D37*
%TO.C,FB1*%
X142575003Y-53810001D03*
X142575003Y-55389999D03*
%TD*%
D38*
%TO.C,C25*%
X173847735Y-62665055D03*
X173140629Y-61957949D03*
%TD*%
D13*
%TO.C,C85*%
X151050000Y-43850001D03*
X151050000Y-42850003D03*
%TD*%
D39*
%TO.C,C17*%
X157430000Y-86857500D03*
X154470000Y-86857500D03*
%TD*%
D11*
%TO.C,R11*%
X165900000Y-89800000D03*
X166899998Y-89800000D03*
%TD*%
D40*
%TO.C,C27*%
X168450000Y-89937500D03*
X168450000Y-86977500D03*
%TD*%
D41*
%TO.C,L1*%
X160550000Y-86257500D03*
X160550000Y-89257500D03*
%TD*%
D15*
%TO.C,C54*%
X140030494Y-80474640D03*
X140030494Y-81474638D03*
%TD*%
D13*
%TO.C,C42*%
X147500000Y-81899998D03*
X147500000Y-80900000D03*
%TD*%
D42*
%TO.C,FB2*%
X141210001Y-80500000D03*
X142789999Y-80500000D03*
%TD*%
D13*
%TO.C,C93*%
X154600000Y-75009999D03*
X154600000Y-74010001D03*
%TD*%
D43*
%TO.C,C23*%
X168450000Y-82277500D03*
X168450000Y-85237500D03*
%TD*%
D39*
%TO.C,C19*%
X157430000Y-89257500D03*
X154470000Y-89257500D03*
%TD*%
D44*
%TO.C,X1*%
X152500003Y-44200001D03*
X154700003Y-44200001D03*
X154700003Y-42500001D03*
X152500003Y-42500001D03*
%TD*%
D14*
%TO.C,C43*%
X150549998Y-77009999D03*
X149550000Y-77009999D03*
%TD*%
D45*
%TO.C,C38*%
X174772450Y-41855988D03*
X174772450Y-43415988D03*
%TD*%
D11*
%TO.C,R51*%
X148660001Y-83400000D03*
X149659999Y-83400000D03*
%TD*%
D13*
%TO.C,C52*%
X143875003Y-53799998D03*
X143875003Y-52800000D03*
%TD*%
D15*
%TO.C,R4*%
X170179998Y-58400001D03*
X170179998Y-59399999D03*
%TD*%
D46*
%TO.C,C9*%
X164655000Y-73975000D03*
X167695000Y-73975000D03*
%TD*%
D15*
%TO.C,C24*%
X173600000Y-67033147D03*
X173600000Y-68033145D03*
%TD*%
D47*
%TO.C,J4*%
X197700000Y-84020000D03*
D48*
X197700000Y-76400000D03*
X197700000Y-68780000D03*
X197700000Y-61160000D03*
X197700000Y-53540000D03*
%TD*%
D15*
%TO.C,R43*%
X167000000Y-57000001D03*
X167000000Y-57999999D03*
%TD*%
D43*
%TO.C,C28*%
X170750000Y-82277500D03*
X170750000Y-85237500D03*
%TD*%
D49*
%TO.C,R2*%
X173235030Y-69597285D03*
X173942136Y-70304391D03*
%TD*%
D11*
%TO.C,R44*%
X174500000Y-67969028D03*
X175500000Y-67969028D03*
%TD*%
%TO.C,R29*%
X135890000Y-84650000D03*
X136890000Y-84650000D03*
%TD*%
D50*
%TO.C,D6*%
X152700000Y-72520000D03*
X152700000Y-74399998D03*
%TD*%
D51*
%TO.C,J1*%
X134750000Y-55500000D03*
D52*
X132210000Y-55500000D03*
%TD*%
D53*
%TO.C,R19*%
X176500000Y-41840000D03*
X176500000Y-43660000D03*
%TD*%
D54*
%TO.C,C6*%
X166000000Y-69400000D03*
X167560000Y-69400000D03*
%TD*%
D23*
%TO.C,C1*%
X187350003Y-68875000D03*
X178350001Y-68875000D03*
%TD*%
D55*
%TO.C,U3*%
X173310260Y-41873744D03*
X173310260Y-43273744D03*
%TD*%
D14*
%TO.C,C8*%
X168199999Y-70500000D03*
X167200001Y-70500000D03*
%TD*%
D49*
%TO.C,R1*%
X172624094Y-70218143D03*
X173331200Y-70925249D03*
%TD*%
D56*
%TO.C,D4*%
X170579998Y-56900000D03*
X168700000Y-56900000D03*
%TD*%
D11*
%TO.C,C76*%
X163375003Y-44100000D03*
X164375003Y-44100000D03*
%TD*%
D15*
%TO.C,C12*%
X138246642Y-44009460D03*
X138246642Y-45009458D03*
%TD*%
D57*
%TO.C,R18*%
X189000000Y-45500000D03*
X189000000Y-43680000D03*
%TD*%
D15*
%TO.C,C14*%
X169600000Y-71000000D03*
X169600000Y-71999998D03*
%TD*%
D39*
%TO.C,C10*%
X157430000Y-84457500D03*
X154470000Y-84457500D03*
%TD*%
D15*
%TO.C,C22*%
X163150000Y-86777502D03*
X163150000Y-87777500D03*
%TD*%
%TO.C,R23*%
X149810000Y-79300000D03*
X149810000Y-80299998D03*
%TD*%
D11*
%TO.C,R42*%
X174500000Y-67063586D03*
X175500000Y-67063586D03*
%TD*%
D15*
%TO.C,C87*%
X155900001Y-42850000D03*
X155900001Y-43849998D03*
%TD*%
D13*
%TO.C,C53*%
X143800000Y-56499998D03*
X143800000Y-55500000D03*
%TD*%
D15*
%TO.C,R5*%
X151100000Y-72900002D03*
X151100000Y-73900000D03*
%TD*%
D58*
%TO.C,C21*%
X171938017Y-69673487D03*
X172645123Y-68966381D03*
%TD*%
D15*
%TO.C,C55*%
X144250000Y-80500001D03*
X144250000Y-81499999D03*
%TD*%
D56*
%TO.C,D2*%
X170539999Y-54900000D03*
X168660001Y-54900000D03*
%TD*%
D59*
%TO.C,U1*%
X166600000Y-87750000D03*
X166600000Y-86800000D03*
X166600000Y-85850000D03*
X164300000Y-85850000D03*
X164300000Y-86800000D03*
X164300000Y-87750000D03*
%TD*%
D58*
%TO.C,R46*%
X173800000Y-61400000D03*
X174507106Y-60692894D03*
%TD*%
D35*
%TO.C,S2*%
X165950000Y-49700000D03*
X161799998Y-49700000D03*
%TD*%
D23*
%TO.C,C7*%
X187400002Y-79650000D03*
X178400000Y-79650000D03*
%TD*%
D13*
%TO.C,C20*%
X166750000Y-85077499D03*
X166750000Y-84077501D03*
%TD*%
D11*
%TO.C,R6*%
X164950001Y-88977500D03*
X165949999Y-88977500D03*
%TD*%
D15*
%TO.C,R22*%
X169279998Y-58400001D03*
X169279998Y-59399999D03*
%TD*%
D58*
%TO.C,R45*%
X174407988Y-62016276D03*
X175115094Y-61309170D03*
%TD*%
M02*
