%TF.GenerationSoftware,KiCad,Pcbnew,10.0.0*%
%TF.CreationDate,2026-06-04T17:08:39+10:00*%
%TF.ProjectId,bench_stm32_esc,62656e63-685f-4737-946d-33325f657363,rev?*%
%TF.SameCoordinates,Original*%
%TF.FileFunction,Legend,Top*%
%TF.FilePolarity,Positive*%
%FSLAX46Y46*%
G04 Gerber Fmt 4.6, Leading zero omitted, Abs format (unit mm)*
G04 Created by KiCad (PCBNEW 10.0.0) date 2026-06-04 17:08:39*
%MOMM*%
%LPD*%
G01*
G04 APERTURE LIST*
G04 Aperture macros list*
%AMRoundRect*
0 Rectangle with rounded corners*
0 $1 Rounding radius*
0 $2 $3 $4 $5 $6 $7 $8 $9 X,Y pos of 4 corners*
0 Add a 4 corners polygon primitive as box body*
4,1,4,$2,$3,$4,$5,$6,$7,$8,$9,$2,$3,0*
0 Add four circle primitives for the rounded corners*
1,1,$1+$1,$2,$3*
1,1,$1+$1,$4,$5*
1,1,$1+$1,$6,$7*
1,1,$1+$1,$8,$9*
0 Add four rect primitives between the rounded corners*
20,1,$1+$1,$2,$3,$4,$5,0*
20,1,$1+$1,$4,$5,$6,$7,0*
20,1,$1+$1,$6,$7,$8,$9,0*
20,1,$1+$1,$8,$9,$2,$3,0*%
G04 Aperture macros list end*
%ADD10C,0.100000*%
%ADD11C,0.120000*%
%ADD12C,0.150000*%
%ADD13C,0.250000*%
%ADD14C,0.000000*%
%ADD15C,0.060000*%
%ADD16C,0.200000*%
%ADD17C,0.300000*%
%ADD18C,0.127000*%
%ADD19R,1.500000X1.500000*%
%ADD20RoundRect,0.159000X-0.159000X-0.189000X0.159000X-0.189000X0.159000X0.189000X-0.159000X0.189000X0*%
%ADD21RoundRect,0.239000X-0.239000X-0.274000X0.239000X-0.274000X0.239000X0.274000X-0.239000X0.274000X0*%
%ADD22C,3.200000*%
%ADD23RoundRect,0.159000X0.189000X-0.159000X0.189000X0.159000X-0.189000X0.159000X-0.189000X-0.159000X0*%
%ADD24RoundRect,0.159000X0.159000X0.189000X-0.159000X0.189000X-0.159000X-0.189000X0.159000X-0.189000X0*%
%ADD25RoundRect,0.159000X-0.189000X0.159000X-0.189000X-0.159000X0.189000X-0.159000X0.189000X0.159000X0*%
%ADD26RoundRect,0.150000X-0.512500X-0.150000X0.512500X-0.150000X0.512500X0.150000X-0.512500X0.150000X0*%
%ADD27RoundRect,0.159000X-0.021213X0.246073X-0.246073X0.021213X0.021213X-0.246073X0.246073X-0.021213X0*%
%ADD28RoundRect,0.093750X0.093750X-0.156250X0.093750X0.156250X-0.093750X0.156250X-0.093750X-0.156250X0*%
%ADD29RoundRect,0.075000X0.075000X-0.250000X0.075000X0.250000X-0.075000X0.250000X-0.075000X-0.250000X0*%
%ADD30RoundRect,0.075000X-0.700000X0.075000X-0.700000X-0.075000X0.700000X-0.075000X0.700000X0.075000X0*%
%ADD31RoundRect,0.075000X-0.075000X0.700000X-0.075000X-0.700000X0.075000X-0.700000X0.075000X0.700000X0*%
%ADD32R,0.680000X0.280000*%
%ADD33R,4.500000X1.650000*%
%ADD34R,0.220000X0.800000*%
%ADD35R,0.800000X0.220000*%
%ADD36R,4.500000X4.500000*%
%ADD37C,1.600000*%
%ADD38C,1.750000*%
%ADD39C,1.800000*%
%ADD40C,0.650000*%
%ADD41RoundRect,0.150000X-0.575000X0.150000X-0.575000X-0.150000X0.575000X-0.150000X0.575000X0.150000X0*%
%ADD42RoundRect,0.075000X-0.650000X0.075000X-0.650000X-0.075000X0.650000X-0.075000X0.650000X0.075000X0*%
%ADD43O,2.100000X1.000000*%
%ADD44O,1.600000X1.000000*%
%ADD45C,0.990600*%
%ADD46C,0.787400*%
%ADD47RoundRect,0.287778X0.489222X0.714222X-0.489222X0.714222X-0.489222X-0.714222X0.489222X-0.714222X0*%
%ADD48RoundRect,0.219000X-0.294000X0.219000X-0.294000X-0.219000X0.294000X-0.219000X0.294000X0.219000X0*%
%ADD49RoundRect,0.220000X-0.255000X0.220000X-0.255000X-0.220000X0.255000X-0.220000X0.255000X0.220000X0*%
%ADD50RoundRect,0.159000X0.246073X0.021213X0.021213X0.246073X-0.246073X-0.021213X-0.021213X-0.246073X0*%
%ADD51RoundRect,0.266521X0.346479X0.671479X-0.346479X0.671479X-0.346479X-0.671479X0.346479X-0.671479X0*%
%ADD52RoundRect,0.266521X0.671479X-0.346479X0.671479X0.346479X-0.671479X0.346479X-0.671479X-0.346479X0*%
%ADD53R,3.900000X1.600000*%
%ADD54RoundRect,0.220000X-0.220000X-0.255000X0.220000X-0.255000X0.220000X0.255000X-0.220000X0.255000X0*%
%ADD55RoundRect,0.266521X-0.671479X0.346479X-0.671479X-0.346479X0.671479X-0.346479X0.671479X0.346479X0*%
%ADD56R,1.400000X1.200000*%
%ADD57RoundRect,0.244000X-0.269000X0.244000X-0.269000X-0.244000X0.269000X-0.244000X0.269000X0.244000X0*%
%ADD58R,1.635000X2.700000*%
%ADD59RoundRect,0.102000X1.200000X-1.200000X1.200000X1.200000X-1.200000X1.200000X-1.200000X-1.200000X0*%
%ADD60C,2.604000*%
%ADD61RoundRect,0.159000X-0.246073X-0.021213X-0.021213X-0.246073X0.246073X0.021213X0.021213X0.246073X0*%
%ADD62RoundRect,0.261500X-0.476500X0.261500X-0.476500X-0.261500X0.476500X-0.261500X0.476500X0.261500X0*%
%ADD63R,1.700000X1.700000*%
%ADD64C,1.700000*%
%ADD65RoundRect,0.267317X-0.470683X0.280683X-0.470683X-0.280683X0.470683X-0.280683X0.470683X0.280683X0*%
%ADD66RoundRect,0.244000X-0.244000X-0.269000X0.244000X-0.269000X0.244000X0.269000X-0.244000X0.269000X0*%
%ADD67RoundRect,0.169000X0.219000X-0.169000X0.219000X0.169000X-0.219000X0.169000X-0.219000X-0.169000X0*%
%ADD68RoundRect,0.261500X0.261500X0.476500X-0.261500X0.476500X-0.261500X-0.476500X0.261500X-0.476500X0*%
%ADD69RoundRect,0.267317X0.470683X-0.280683X0.470683X0.280683X-0.470683X0.280683X-0.470683X-0.280683X0*%
%ADD70RoundRect,0.159000X0.021213X-0.246073X0.246073X-0.021213X-0.021213X0.246073X-0.246073X0.021213X0*%
%ADD71R,1.072000X0.532000*%
G04 APERTURE END LIST*
D10*
X143375312Y-74277180D02*
X143327693Y-74324800D01*
X143327693Y-74324800D02*
X143184836Y-74372419D01*
X143184836Y-74372419D02*
X143089598Y-74372419D01*
X143089598Y-74372419D02*
X142946741Y-74324800D01*
X142946741Y-74324800D02*
X142851503Y-74229561D01*
X142851503Y-74229561D02*
X142803884Y-74134323D01*
X142803884Y-74134323D02*
X142756265Y-73943847D01*
X142756265Y-73943847D02*
X142756265Y-73800990D01*
X142756265Y-73800990D02*
X142803884Y-73610514D01*
X142803884Y-73610514D02*
X142851503Y-73515276D01*
X142851503Y-73515276D02*
X142946741Y-73420038D01*
X142946741Y-73420038D02*
X143089598Y-73372419D01*
X143089598Y-73372419D02*
X143184836Y-73372419D01*
X143184836Y-73372419D02*
X143327693Y-73420038D01*
X143327693Y-73420038D02*
X143375312Y-73467657D01*
X143756265Y-74086704D02*
X144232455Y-74086704D01*
X143661027Y-74372419D02*
X143994360Y-73372419D01*
X143994360Y-73372419D02*
X144327693Y-74372419D01*
X144661027Y-74372419D02*
X144661027Y-73372419D01*
X144661027Y-73372419D02*
X145232455Y-74372419D01*
X145232455Y-74372419D02*
X145232455Y-73372419D01*
X142875312Y-67777180D02*
X142827693Y-67824800D01*
X142827693Y-67824800D02*
X142684836Y-67872419D01*
X142684836Y-67872419D02*
X142589598Y-67872419D01*
X142589598Y-67872419D02*
X142446741Y-67824800D01*
X142446741Y-67824800D02*
X142351503Y-67729561D01*
X142351503Y-67729561D02*
X142303884Y-67634323D01*
X142303884Y-67634323D02*
X142256265Y-67443847D01*
X142256265Y-67443847D02*
X142256265Y-67300990D01*
X142256265Y-67300990D02*
X142303884Y-67110514D01*
X142303884Y-67110514D02*
X142351503Y-67015276D01*
X142351503Y-67015276D02*
X142446741Y-66920038D01*
X142446741Y-66920038D02*
X142589598Y-66872419D01*
X142589598Y-66872419D02*
X142684836Y-66872419D01*
X142684836Y-66872419D02*
X142827693Y-66920038D01*
X142827693Y-66920038D02*
X142875312Y-66967657D01*
X143256265Y-67586704D02*
X143732455Y-67586704D01*
X143161027Y-67872419D02*
X143494360Y-66872419D01*
X143494360Y-66872419D02*
X143827693Y-67872419D01*
X144161027Y-67872419D02*
X144161027Y-66872419D01*
X144161027Y-66872419D02*
X144732455Y-67872419D01*
X144732455Y-67872419D02*
X144732455Y-66872419D01*
X142970550Y-61717657D02*
X142875312Y-61670038D01*
X142875312Y-61670038D02*
X142780074Y-61574800D01*
X142780074Y-61574800D02*
X142637217Y-61431942D01*
X142637217Y-61431942D02*
X142541979Y-61384323D01*
X142541979Y-61384323D02*
X142446741Y-61384323D01*
X142494360Y-61622419D02*
X142399122Y-61574800D01*
X142399122Y-61574800D02*
X142303884Y-61479561D01*
X142303884Y-61479561D02*
X142256265Y-61289085D01*
X142256265Y-61289085D02*
X142256265Y-60955752D01*
X142256265Y-60955752D02*
X142303884Y-60765276D01*
X142303884Y-60765276D02*
X142399122Y-60670038D01*
X142399122Y-60670038D02*
X142494360Y-60622419D01*
X142494360Y-60622419D02*
X142684836Y-60622419D01*
X142684836Y-60622419D02*
X142780074Y-60670038D01*
X142780074Y-60670038D02*
X142875312Y-60765276D01*
X142875312Y-60765276D02*
X142922931Y-60955752D01*
X142922931Y-60955752D02*
X142922931Y-61289085D01*
X142922931Y-61289085D02*
X142875312Y-61479561D01*
X142875312Y-61479561D02*
X142780074Y-61574800D01*
X142780074Y-61574800D02*
X142684836Y-61622419D01*
X142684836Y-61622419D02*
X142494360Y-61622419D01*
X143351503Y-60622419D02*
X143351503Y-61431942D01*
X143351503Y-61431942D02*
X143399122Y-61527180D01*
X143399122Y-61527180D02*
X143446741Y-61574800D01*
X143446741Y-61574800D02*
X143541979Y-61622419D01*
X143541979Y-61622419D02*
X143732455Y-61622419D01*
X143732455Y-61622419D02*
X143827693Y-61574800D01*
X143827693Y-61574800D02*
X143875312Y-61527180D01*
X143875312Y-61527180D02*
X143922931Y-61431942D01*
X143922931Y-61431942D02*
X143922931Y-60622419D01*
X144351503Y-61336704D02*
X144827693Y-61336704D01*
X144256265Y-61622419D02*
X144589598Y-60622419D01*
X144589598Y-60622419D02*
X144922931Y-61622419D01*
X145256265Y-61622419D02*
X145256265Y-60622419D01*
X145256265Y-60622419D02*
X145494360Y-60622419D01*
X145494360Y-60622419D02*
X145637217Y-60670038D01*
X145637217Y-60670038D02*
X145732455Y-60765276D01*
X145732455Y-60765276D02*
X145780074Y-60860514D01*
X145780074Y-60860514D02*
X145827693Y-61050990D01*
X145827693Y-61050990D02*
X145827693Y-61193847D01*
X145827693Y-61193847D02*
X145780074Y-61384323D01*
X145780074Y-61384323D02*
X145732455Y-61479561D01*
X145732455Y-61479561D02*
X145637217Y-61574800D01*
X145637217Y-61574800D02*
X145494360Y-61622419D01*
X145494360Y-61622419D02*
X145256265Y-61622419D01*
X147018170Y-61098609D02*
X147351503Y-61098609D01*
X147494360Y-61622419D02*
X147018170Y-61622419D01*
X147018170Y-61622419D02*
X147018170Y-60622419D01*
X147018170Y-60622419D02*
X147494360Y-60622419D01*
X147922932Y-61622419D02*
X147922932Y-60622419D01*
X147922932Y-60622419D02*
X148494360Y-61622419D01*
X148494360Y-61622419D02*
X148494360Y-60622419D01*
X149541979Y-61527180D02*
X149494360Y-61574800D01*
X149494360Y-61574800D02*
X149351503Y-61622419D01*
X149351503Y-61622419D02*
X149256265Y-61622419D01*
X149256265Y-61622419D02*
X149113408Y-61574800D01*
X149113408Y-61574800D02*
X149018170Y-61479561D01*
X149018170Y-61479561D02*
X148970551Y-61384323D01*
X148970551Y-61384323D02*
X148922932Y-61193847D01*
X148922932Y-61193847D02*
X148922932Y-61050990D01*
X148922932Y-61050990D02*
X148970551Y-60860514D01*
X148970551Y-60860514D02*
X149018170Y-60765276D01*
X149018170Y-60765276D02*
X149113408Y-60670038D01*
X149113408Y-60670038D02*
X149256265Y-60622419D01*
X149256265Y-60622419D02*
X149351503Y-60622419D01*
X149351503Y-60622419D02*
X149494360Y-60670038D01*
X149494360Y-60670038D02*
X149541979Y-60717657D01*
X160675200Y-54006265D02*
X160627580Y-54149122D01*
X160627580Y-54149122D02*
X160627580Y-54387217D01*
X160627580Y-54387217D02*
X160675200Y-54482455D01*
X160675200Y-54482455D02*
X160722819Y-54530074D01*
X160722819Y-54530074D02*
X160818057Y-54577693D01*
X160818057Y-54577693D02*
X160913295Y-54577693D01*
X160913295Y-54577693D02*
X161008533Y-54530074D01*
X161008533Y-54530074D02*
X161056152Y-54482455D01*
X161056152Y-54482455D02*
X161103771Y-54387217D01*
X161103771Y-54387217D02*
X161151390Y-54196741D01*
X161151390Y-54196741D02*
X161199009Y-54101503D01*
X161199009Y-54101503D02*
X161246628Y-54053884D01*
X161246628Y-54053884D02*
X161341866Y-54006265D01*
X161341866Y-54006265D02*
X161437104Y-54006265D01*
X161437104Y-54006265D02*
X161532342Y-54053884D01*
X161532342Y-54053884D02*
X161579961Y-54101503D01*
X161579961Y-54101503D02*
X161627580Y-54196741D01*
X161627580Y-54196741D02*
X161627580Y-54434836D01*
X161627580Y-54434836D02*
X161579961Y-54577693D01*
X161627580Y-54911027D02*
X160627580Y-55149122D01*
X160627580Y-55149122D02*
X161341866Y-55339598D01*
X161341866Y-55339598D02*
X160627580Y-55530074D01*
X160627580Y-55530074D02*
X161627580Y-55768170D01*
X160627580Y-56149122D02*
X161627580Y-56149122D01*
X161627580Y-56149122D02*
X161627580Y-56387217D01*
X161627580Y-56387217D02*
X161579961Y-56530074D01*
X161579961Y-56530074D02*
X161484723Y-56625312D01*
X161484723Y-56625312D02*
X161389485Y-56672931D01*
X161389485Y-56672931D02*
X161199009Y-56720550D01*
X161199009Y-56720550D02*
X161056152Y-56720550D01*
X161056152Y-56720550D02*
X160865676Y-56672931D01*
X160865676Y-56672931D02*
X160770438Y-56625312D01*
X160770438Y-56625312D02*
X160675200Y-56530074D01*
X160675200Y-56530074D02*
X160627580Y-56387217D01*
X160627580Y-56387217D02*
X160627580Y-56149122D01*
X167637217Y-49598609D02*
X167780074Y-49646228D01*
X167780074Y-49646228D02*
X167827693Y-49693847D01*
X167827693Y-49693847D02*
X167875312Y-49789085D01*
X167875312Y-49789085D02*
X167875312Y-49931942D01*
X167875312Y-49931942D02*
X167827693Y-50027180D01*
X167827693Y-50027180D02*
X167780074Y-50074800D01*
X167780074Y-50074800D02*
X167684836Y-50122419D01*
X167684836Y-50122419D02*
X167303884Y-50122419D01*
X167303884Y-50122419D02*
X167303884Y-49122419D01*
X167303884Y-49122419D02*
X167637217Y-49122419D01*
X167637217Y-49122419D02*
X167732455Y-49170038D01*
X167732455Y-49170038D02*
X167780074Y-49217657D01*
X167780074Y-49217657D02*
X167827693Y-49312895D01*
X167827693Y-49312895D02*
X167827693Y-49408133D01*
X167827693Y-49408133D02*
X167780074Y-49503371D01*
X167780074Y-49503371D02*
X167732455Y-49550990D01*
X167732455Y-49550990D02*
X167637217Y-49598609D01*
X167637217Y-49598609D02*
X167303884Y-49598609D01*
X168494360Y-49122419D02*
X168684836Y-49122419D01*
X168684836Y-49122419D02*
X168780074Y-49170038D01*
X168780074Y-49170038D02*
X168875312Y-49265276D01*
X168875312Y-49265276D02*
X168922931Y-49455752D01*
X168922931Y-49455752D02*
X168922931Y-49789085D01*
X168922931Y-49789085D02*
X168875312Y-49979561D01*
X168875312Y-49979561D02*
X168780074Y-50074800D01*
X168780074Y-50074800D02*
X168684836Y-50122419D01*
X168684836Y-50122419D02*
X168494360Y-50122419D01*
X168494360Y-50122419D02*
X168399122Y-50074800D01*
X168399122Y-50074800D02*
X168303884Y-49979561D01*
X168303884Y-49979561D02*
X168256265Y-49789085D01*
X168256265Y-49789085D02*
X168256265Y-49455752D01*
X168256265Y-49455752D02*
X168303884Y-49265276D01*
X168303884Y-49265276D02*
X168399122Y-49170038D01*
X168399122Y-49170038D02*
X168494360Y-49122419D01*
X169541979Y-49122419D02*
X169732455Y-49122419D01*
X169732455Y-49122419D02*
X169827693Y-49170038D01*
X169827693Y-49170038D02*
X169922931Y-49265276D01*
X169922931Y-49265276D02*
X169970550Y-49455752D01*
X169970550Y-49455752D02*
X169970550Y-49789085D01*
X169970550Y-49789085D02*
X169922931Y-49979561D01*
X169922931Y-49979561D02*
X169827693Y-50074800D01*
X169827693Y-50074800D02*
X169732455Y-50122419D01*
X169732455Y-50122419D02*
X169541979Y-50122419D01*
X169541979Y-50122419D02*
X169446741Y-50074800D01*
X169446741Y-50074800D02*
X169351503Y-49979561D01*
X169351503Y-49979561D02*
X169303884Y-49789085D01*
X169303884Y-49789085D02*
X169303884Y-49455752D01*
X169303884Y-49455752D02*
X169351503Y-49265276D01*
X169351503Y-49265276D02*
X169446741Y-49170038D01*
X169446741Y-49170038D02*
X169541979Y-49122419D01*
X170256265Y-49122419D02*
X170827693Y-49122419D01*
X170541979Y-50122419D02*
X170541979Y-49122419D01*
X167875312Y-46622419D02*
X167541979Y-46146228D01*
X167303884Y-46622419D02*
X167303884Y-45622419D01*
X167303884Y-45622419D02*
X167684836Y-45622419D01*
X167684836Y-45622419D02*
X167780074Y-45670038D01*
X167780074Y-45670038D02*
X167827693Y-45717657D01*
X167827693Y-45717657D02*
X167875312Y-45812895D01*
X167875312Y-45812895D02*
X167875312Y-45955752D01*
X167875312Y-45955752D02*
X167827693Y-46050990D01*
X167827693Y-46050990D02*
X167780074Y-46098609D01*
X167780074Y-46098609D02*
X167684836Y-46146228D01*
X167684836Y-46146228D02*
X167303884Y-46146228D01*
X168303884Y-46098609D02*
X168637217Y-46098609D01*
X168780074Y-46622419D02*
X168303884Y-46622419D01*
X168303884Y-46622419D02*
X168303884Y-45622419D01*
X168303884Y-45622419D02*
X168780074Y-45622419D01*
X169161027Y-46574800D02*
X169303884Y-46622419D01*
X169303884Y-46622419D02*
X169541979Y-46622419D01*
X169541979Y-46622419D02*
X169637217Y-46574800D01*
X169637217Y-46574800D02*
X169684836Y-46527180D01*
X169684836Y-46527180D02*
X169732455Y-46431942D01*
X169732455Y-46431942D02*
X169732455Y-46336704D01*
X169732455Y-46336704D02*
X169684836Y-46241466D01*
X169684836Y-46241466D02*
X169637217Y-46193847D01*
X169637217Y-46193847D02*
X169541979Y-46146228D01*
X169541979Y-46146228D02*
X169351503Y-46098609D01*
X169351503Y-46098609D02*
X169256265Y-46050990D01*
X169256265Y-46050990D02*
X169208646Y-46003371D01*
X169208646Y-46003371D02*
X169161027Y-45908133D01*
X169161027Y-45908133D02*
X169161027Y-45812895D01*
X169161027Y-45812895D02*
X169208646Y-45717657D01*
X169208646Y-45717657D02*
X169256265Y-45670038D01*
X169256265Y-45670038D02*
X169351503Y-45622419D01*
X169351503Y-45622419D02*
X169589598Y-45622419D01*
X169589598Y-45622419D02*
X169732455Y-45670038D01*
X170161027Y-46098609D02*
X170494360Y-46098609D01*
X170637217Y-46622419D02*
X170161027Y-46622419D01*
X170161027Y-46622419D02*
X170161027Y-45622419D01*
X170161027Y-45622419D02*
X170637217Y-45622419D01*
X170922932Y-45622419D02*
X171494360Y-45622419D01*
X171208646Y-46622419D02*
X171208646Y-45622419D01*
X156280074Y-79622419D02*
X155803884Y-79622419D01*
X155803884Y-79622419D02*
X155756265Y-80098609D01*
X155756265Y-80098609D02*
X155803884Y-80050990D01*
X155803884Y-80050990D02*
X155899122Y-80003371D01*
X155899122Y-80003371D02*
X156137217Y-80003371D01*
X156137217Y-80003371D02*
X156232455Y-80050990D01*
X156232455Y-80050990D02*
X156280074Y-80098609D01*
X156280074Y-80098609D02*
X156327693Y-80193847D01*
X156327693Y-80193847D02*
X156327693Y-80431942D01*
X156327693Y-80431942D02*
X156280074Y-80527180D01*
X156280074Y-80527180D02*
X156232455Y-80574800D01*
X156232455Y-80574800D02*
X156137217Y-80622419D01*
X156137217Y-80622419D02*
X155899122Y-80622419D01*
X155899122Y-80622419D02*
X155803884Y-80574800D01*
X155803884Y-80574800D02*
X155756265Y-80527180D01*
X156613408Y-79622419D02*
X156946741Y-80622419D01*
X156946741Y-80622419D02*
X157280074Y-79622419D01*
X156958646Y-72622419D02*
X157577693Y-72622419D01*
X157577693Y-72622419D02*
X157244360Y-73003371D01*
X157244360Y-73003371D02*
X157387217Y-73003371D01*
X157387217Y-73003371D02*
X157482455Y-73050990D01*
X157482455Y-73050990D02*
X157530074Y-73098609D01*
X157530074Y-73098609D02*
X157577693Y-73193847D01*
X157577693Y-73193847D02*
X157577693Y-73431942D01*
X157577693Y-73431942D02*
X157530074Y-73527180D01*
X157530074Y-73527180D02*
X157482455Y-73574800D01*
X157482455Y-73574800D02*
X157387217Y-73622419D01*
X157387217Y-73622419D02*
X157101503Y-73622419D01*
X157101503Y-73622419D02*
X157006265Y-73574800D01*
X157006265Y-73574800D02*
X156958646Y-73527180D01*
X157863408Y-72622419D02*
X158196741Y-73622419D01*
X158196741Y-73622419D02*
X158530074Y-72622419D01*
X158768170Y-72622419D02*
X159387217Y-72622419D01*
X159387217Y-72622419D02*
X159053884Y-73003371D01*
X159053884Y-73003371D02*
X159196741Y-73003371D01*
X159196741Y-73003371D02*
X159291979Y-73050990D01*
X159291979Y-73050990D02*
X159339598Y-73098609D01*
X159339598Y-73098609D02*
X159387217Y-73193847D01*
X159387217Y-73193847D02*
X159387217Y-73431942D01*
X159387217Y-73431942D02*
X159339598Y-73527180D01*
X159339598Y-73527180D02*
X159291979Y-73574800D01*
X159291979Y-73574800D02*
X159196741Y-73622419D01*
X159196741Y-73622419D02*
X158911027Y-73622419D01*
X158911027Y-73622419D02*
X158815789Y-73574800D01*
X158815789Y-73574800D02*
X158768170Y-73527180D01*
%TO.C,TP13*%
D11*
X157300000Y-74050000D02*
X159200000Y-74050000D01*
X157300000Y-75950000D02*
X157300000Y-74050000D01*
X159200000Y-74050000D02*
X159200000Y-75950000D01*
X159200000Y-75950000D02*
X157300000Y-75950000D01*
%TO.C,TP12*%
X153050000Y-79300000D02*
X154950000Y-79300000D01*
X153050000Y-81200000D02*
X153050000Y-79300000D01*
X154950000Y-79300000D02*
X154950000Y-81200000D01*
X154950000Y-81200000D02*
X153050000Y-81200000D01*
%TO.C,D1*%
D12*
X141760000Y-48520000D02*
X141760000Y-49980000D01*
X141760000Y-49980000D02*
X144050000Y-49980000D01*
X144050000Y-48520000D02*
X141760000Y-48520000D01*
%TO.C,U6*%
D11*
X152140000Y-75437500D02*
X153960000Y-75437500D01*
X152140000Y-75487500D02*
X152140000Y-75437500D01*
X152140000Y-78557500D02*
X152140000Y-78507500D01*
X153960000Y-75437500D02*
X153960000Y-75487500D01*
X153960000Y-76607500D02*
X153960000Y-77387500D01*
X153960000Y-78507500D02*
X153960000Y-78557500D01*
X153960000Y-78557500D02*
X152140000Y-78557500D01*
X151600000Y-75487500D02*
X151360000Y-75157500D01*
X151840000Y-75157500D01*
X151600000Y-75487500D01*
G36*
X151600000Y-75487500D02*
G01*
X151360000Y-75157500D01*
X151840000Y-75157500D01*
X151600000Y-75487500D01*
G37*
%TO.C,U20*%
X137500000Y-82100000D02*
X137500000Y-83150000D01*
X139480000Y-82100000D02*
X139480000Y-83400000D01*
X137500000Y-83800000D02*
X137220000Y-83520000D01*
X137500000Y-83520000D01*
X137500000Y-83800000D01*
G36*
X137500000Y-83800000D02*
G01*
X137220000Y-83520000D01*
X137500000Y-83520000D01*
X137500000Y-83800000D01*
G37*
%TO.C,U7*%
X156530000Y-46790000D02*
X156060000Y-46450000D01*
X156530000Y-46110000D01*
X156530000Y-46790000D01*
G36*
X156530000Y-46790000D02*
G01*
X156060000Y-46450000D01*
X156530000Y-46110000D01*
X156530000Y-46790000D01*
G37*
X157010000Y-57310000D02*
X156060000Y-57310000D01*
X157010000Y-56360000D02*
X157010000Y-57310000D01*
X157010000Y-47090000D02*
X157010000Y-48040000D01*
X156060000Y-47090000D02*
X157010000Y-47090000D01*
X147740000Y-57310000D02*
X146790000Y-57310000D01*
X146790000Y-57310000D02*
X146790000Y-56360000D01*
X146790000Y-48040000D02*
X146790000Y-47090000D01*
X146790000Y-47090000D02*
X147740000Y-47090000D01*
%TO.C,U5*%
D13*
D14*
X148650000Y-82890000D02*
X148649999Y-82890000D01*
X148649999Y-82890000D01*
X148649999Y-82890000D01*
X148649999Y-82890000D01*
X148649999Y-82890000D01*
X148649999Y-82890000D01*
X148649999Y-82890000D01*
X148649999Y-82889999D01*
X148649999Y-82889999D01*
X148649999Y-82889999D01*
X148649999Y-82889999D01*
X148649999Y-82889999D01*
X148650000Y-82889999D01*
X148650000Y-82889999D01*
X148650000Y-82889999D01*
X148650000Y-82889999D01*
X148650000Y-82889999D01*
X148650000Y-82889999D01*
X148650000Y-82889999D01*
X148650000Y-82889999D01*
X148650000Y-82889999D01*
X148650000Y-82889999D01*
X148650000Y-82889999D01*
X148650000Y-82889999D01*
X148650001Y-82889999D01*
X148650001Y-82889999D01*
X148650001Y-82889999D01*
X148650001Y-82889999D01*
X148650001Y-82889999D01*
X148650001Y-82889999D01*
X148650001Y-82890000D01*
X148650001Y-82890000D01*
X148650001Y-82890000D01*
X148650001Y-82890000D01*
X148650001Y-82890000D01*
X148650001Y-82890000D01*
X148650001Y-82890000D01*
X148650000Y-82890000D01*
X148650000Y-82890000D02*
X148650001Y-82890000D01*
X148650001Y-82890000D01*
X148650001Y-82890000D01*
X148650001Y-82890000D01*
X148650001Y-82890000D01*
X148650001Y-82890000D01*
X148650001Y-82890001D01*
X148650001Y-82890001D01*
X148650001Y-82890001D01*
X148650001Y-82890001D01*
X148650001Y-82890001D01*
X148650001Y-82890001D01*
X148650001Y-82890001D01*
X148650000Y-82890001D01*
X148650000Y-82890001D01*
X148650000Y-82890001D01*
X148650000Y-82890001D01*
X148650000Y-82890001D01*
X148650000Y-82890001D01*
X148650000Y-82890001D01*
X148650000Y-82890001D01*
X148650000Y-82890001D01*
X148650000Y-82890001D01*
X148650000Y-82890001D01*
X148650000Y-82890001D01*
X148649999Y-82890001D01*
X148649999Y-82890001D01*
X148649999Y-82890001D01*
X148649999Y-82890001D01*
X148649999Y-82890001D01*
X148649999Y-82890001D01*
X148649999Y-82890000D01*
X148649999Y-82890000D01*
X148649999Y-82890000D01*
X148649999Y-82890000D01*
X148649999Y-82890000D01*
X148649999Y-82890000D01*
X148650000Y-82890000D01*
D13*
X148650000Y-82890000D02*
X149670000Y-82890000D01*
X149670000Y-80610000D02*
X148650000Y-80610000D01*
D14*
X149670000Y-82890000D02*
X149669999Y-82890000D01*
X149669999Y-82890000D01*
X149669999Y-82890000D01*
X149669999Y-82890000D01*
X149669999Y-82890000D01*
X149669999Y-82890000D01*
X149669999Y-82890000D01*
X149669999Y-82889999D01*
X149669999Y-82889999D01*
X149669999Y-82889999D01*
X149669999Y-82889999D01*
X149669999Y-82889999D01*
X149670000Y-82889999D01*
X149670000Y-82889999D01*
X149670000Y-82889999D01*
X149670000Y-82889999D01*
X149670000Y-82889999D01*
X149670000Y-82889999D01*
X149670000Y-82889999D01*
X149670000Y-82889999D01*
X149670000Y-82889999D01*
X149670000Y-82889999D01*
X149670000Y-82889999D01*
X149670000Y-82889999D01*
X149670001Y-82889999D01*
X149670001Y-82889999D01*
X149670001Y-82889999D01*
X149670001Y-82889999D01*
X149670001Y-82889999D01*
X149670001Y-82889999D01*
X149670001Y-82890000D01*
X149670001Y-82890000D01*
X149670001Y-82890000D01*
X149670001Y-82890000D01*
X149670001Y-82890000D01*
X149670001Y-82890000D01*
X149670001Y-82890000D01*
X149670000Y-82890000D01*
X149670000Y-82890000D02*
X149670001Y-82890000D01*
X149670001Y-82890000D01*
X149670001Y-82890000D01*
X149670001Y-82890000D01*
X149670001Y-82890000D01*
X149670001Y-82890000D01*
X149670001Y-82890001D01*
X149670001Y-82890001D01*
X149670001Y-82890001D01*
X149670001Y-82890001D01*
X149670001Y-82890001D01*
X149670001Y-82890001D01*
X149670001Y-82890001D01*
X149670000Y-82890001D01*
X149670000Y-82890001D01*
X149670000Y-82890001D01*
X149670000Y-82890001D01*
X149670000Y-82890001D01*
X149670000Y-82890001D01*
X149670000Y-82890001D01*
X149670000Y-82890001D01*
X149670000Y-82890001D01*
X149670000Y-82890001D01*
X149670000Y-82890001D01*
X149670000Y-82890001D01*
X149669999Y-82890001D01*
X149669999Y-82890001D01*
X149669999Y-82890001D01*
X149669999Y-82890001D01*
X149669999Y-82890001D01*
X149669999Y-82890001D01*
X149669999Y-82890000D01*
X149669999Y-82890000D01*
X149669999Y-82890000D01*
X149669999Y-82890000D01*
X149669999Y-82890000D01*
X149669999Y-82890000D01*
X149670000Y-82890000D01*
D12*
X148390000Y-80550000D02*
G75*
G02*
X148230000Y-80550000I-80000J0D01*
G01*
X148230000Y-80550000D02*
G75*
G02*
X148390000Y-80550000I80000J0D01*
G01*
D15*
X148390002Y-80699999D02*
G75*
G02*
X148329998Y-80699999I-30002J0D01*
G01*
X148329998Y-80699999D02*
G75*
G02*
X148390002Y-80699999I30002J0D01*
G01*
%TO.C,C2*%
D12*
X177620002Y-52875000D02*
X185940001Y-52875000D01*
X177620002Y-57255000D02*
X177620002Y-52875000D01*
X177620002Y-58955000D02*
X177620002Y-63335000D01*
X177620002Y-63335000D02*
X185940001Y-63335000D01*
X185940001Y-52875000D02*
X188080002Y-55015001D01*
X185940001Y-63335000D02*
X188080002Y-61194999D01*
X188080002Y-55015001D02*
X188080002Y-57255000D01*
X188080002Y-61194999D02*
X188080002Y-58955000D01*
D15*
X188680002Y-52955000D02*
G75*
G02*
X188620002Y-52955000I-30000J0D01*
G01*
X188620002Y-52955000D02*
G75*
G02*
X188680002Y-52955000I30000J0D01*
G01*
D14*
G36*
X179245005Y-55890501D02*
G01*
X178008991Y-55890501D01*
X178008991Y-55581510D01*
X179245005Y-55581510D01*
X179245005Y-55890501D01*
G37*
G36*
X187227514Y-56765988D02*
G01*
X186918499Y-56765988D01*
X186918498Y-54705997D01*
X187227513Y-54705997D01*
X187227514Y-56765988D01*
G37*
G36*
X187691013Y-55890501D02*
G01*
X186454999Y-55890501D01*
X186454999Y-55581510D01*
X187691013Y-55581510D01*
X187691013Y-55890501D01*
G37*
%TO.C,U4*%
D16*
X166450000Y-62050000D02*
X166850000Y-62050000D01*
X166450000Y-62450000D02*
X166450000Y-62050000D01*
X166450000Y-68350000D02*
X166450000Y-67950000D01*
X166850000Y-68350000D02*
X166450000Y-68350000D01*
X172750000Y-62050000D02*
X172350000Y-62050000D01*
X172750000Y-62450000D02*
X172750000Y-62050000D01*
X172750000Y-67950000D02*
X172750000Y-68350000D01*
X172750000Y-68350000D02*
X172350000Y-68350000D01*
D17*
X166650000Y-68750000D02*
G75*
G02*
X166647461Y-68750021I-29J-150000D01*
G01*
D15*
X166630000Y-68200000D02*
G75*
G02*
X166570000Y-68200000I-30000J0D01*
G01*
X166570000Y-68200000D02*
G75*
G02*
X166630000Y-68200000I30000J0D01*
G01*
%TO.C,CN1*%
D13*
X126245000Y-65150000D02*
X127705000Y-65150000D01*
X126245000Y-70350000D02*
X126245000Y-65150000D01*
X126245000Y-70350000D02*
X127705000Y-70350000D01*
X127695000Y-70720000D02*
X127695000Y-64780000D01*
X134325000Y-64780000D02*
X127695000Y-64780000D01*
X134325000Y-64780000D02*
X136155000Y-64779999D01*
X136155000Y-64779999D02*
X136155000Y-66100000D01*
X136155000Y-66100000D02*
X137015000Y-66100000D01*
X136155000Y-69400000D02*
X137015000Y-69400000D01*
X136155000Y-70720001D02*
X127695000Y-70720000D01*
X136155000Y-70720001D02*
X136155000Y-69400000D01*
X139135000Y-66100000D02*
X139515000Y-66100000D01*
X139135000Y-69400000D02*
X139515000Y-69400000D01*
X140264999Y-67910000D02*
X140264999Y-67590000D01*
D15*
X140855000Y-70720000D02*
G75*
G02*
X140795000Y-70720000I-30000J0D01*
G01*
X140795000Y-70720000D02*
G75*
G02*
X140855000Y-70720000I30000J0D01*
G01*
%TO.C,CN2*%
D13*
X126192500Y-71485000D02*
X127652500Y-71485000D01*
X126192500Y-76685000D02*
X126192500Y-71485000D01*
X126192500Y-76685000D02*
X127652500Y-76685000D01*
X127642500Y-77055000D02*
X127642500Y-71115000D01*
X134272500Y-71115000D02*
X127642500Y-71115000D01*
X134272500Y-71115000D02*
X136102500Y-71114999D01*
X136102500Y-71114999D02*
X136102500Y-72435000D01*
X136102500Y-72435000D02*
X136962500Y-72435000D01*
X136102500Y-75735000D02*
X136962500Y-75735000D01*
X136102500Y-77055001D02*
X127642500Y-77055000D01*
X136102500Y-77055001D02*
X136102500Y-75735000D01*
X139082500Y-72435000D02*
X139462500Y-72435000D01*
X139082500Y-75735000D02*
X139462500Y-75735000D01*
X140212499Y-74245000D02*
X140212499Y-73925000D01*
D15*
X140802500Y-77055000D02*
G75*
G02*
X140742500Y-77055000I-30000J0D01*
G01*
X140742500Y-77055000D02*
G75*
G02*
X140802500Y-77055000I30000J0D01*
G01*
%TO.C,CN3*%
D13*
X136170133Y-64305528D02*
X127710133Y-64305527D01*
X126260133Y-58735527D02*
X127720133Y-58735527D01*
X126260133Y-63935527D02*
X127720133Y-63935527D01*
X126260133Y-63935527D02*
X126260133Y-58735527D01*
X134340133Y-58365527D02*
X127710133Y-58365527D01*
X134340133Y-58365527D02*
X136170133Y-58365526D01*
X136170133Y-58365526D02*
X136170133Y-59685527D01*
X136170133Y-59685527D02*
X137030133Y-59685527D01*
X136170133Y-64305528D02*
X136170133Y-62985527D01*
X136170133Y-62985527D02*
X137030133Y-62985527D01*
X127710133Y-64305527D02*
X127710133Y-58365527D01*
X139150133Y-62985527D02*
X139530133Y-62985527D01*
X139150133Y-59685527D02*
X139530133Y-59685527D01*
X140280132Y-61495527D02*
X140280132Y-61175527D01*
D15*
X140870133Y-64305527D02*
G75*
G02*
X140810133Y-64305527I-30000J0D01*
G01*
X140810133Y-64305527D02*
G75*
G02*
X140870133Y-64305527I30000J0D01*
G01*
%TO.C,J2*%
D11*
X126280000Y-78200001D02*
X126280000Y-87599999D01*
X128180000Y-78200001D02*
X126280000Y-78200001D01*
X128180000Y-87599999D02*
X126280000Y-87599999D01*
X132080000Y-78200000D02*
X130080000Y-78200000D01*
X132080000Y-87600000D02*
X130080000Y-87600000D01*
%TO.C,J3*%
X165320002Y-57020000D02*
X165320002Y-57655000D01*
X165320002Y-57655000D02*
X164685002Y-57655000D01*
%TO.C,C4*%
D12*
X177620001Y-85235000D02*
X185940000Y-85235000D01*
X177620001Y-89615000D02*
X177620001Y-85235000D01*
X177620001Y-91315000D02*
X177620001Y-95695000D01*
X177620001Y-95695000D02*
X185940000Y-95695000D01*
X185940000Y-85235000D02*
X188080001Y-87375001D01*
X185940000Y-95695000D02*
X188080001Y-93554999D01*
X188080001Y-87375001D02*
X188080001Y-89615000D01*
X188080001Y-93554999D02*
X188080001Y-91315000D01*
D15*
X188680001Y-85315000D02*
G75*
G02*
X188620001Y-85315000I-30000J0D01*
G01*
X188620001Y-85315000D02*
G75*
G02*
X188680001Y-85315000I30000J0D01*
G01*
D14*
G36*
X179245004Y-88250501D02*
G01*
X178008990Y-88250501D01*
X178008990Y-87941510D01*
X179245004Y-87941510D01*
X179245004Y-88250501D01*
G37*
G36*
X187227513Y-89125988D02*
G01*
X186918498Y-89125988D01*
X186918497Y-87065997D01*
X187227512Y-87065997D01*
X187227513Y-89125988D01*
G37*
G36*
X187691012Y-88250501D02*
G01*
X186454998Y-88250501D01*
X186454998Y-87941510D01*
X187691012Y-87941510D01*
X187691012Y-88250501D01*
G37*
%TO.C,S1*%
D18*
X161875003Y-44750000D02*
X161875003Y-44980000D01*
X161875003Y-44750000D02*
X165875003Y-44750000D01*
X161875003Y-47650000D02*
X161875003Y-47420000D01*
X165875003Y-44750000D02*
X165875003Y-44980000D01*
X165875003Y-47420000D02*
X165875003Y-47650000D01*
X165875003Y-47650000D02*
X161875003Y-47650000D01*
%TO.C,C3*%
D12*
X177620002Y-41975000D02*
X185940001Y-41975000D01*
X177620002Y-46355000D02*
X177620002Y-41975000D01*
X177620002Y-48055000D02*
X177620002Y-52435000D01*
X177620002Y-52435000D02*
X185940001Y-52435000D01*
X185940001Y-41975000D02*
X188080002Y-44115001D01*
X185940001Y-52435000D02*
X188080002Y-50294999D01*
X188080002Y-44115001D02*
X188080002Y-46355000D01*
X188080002Y-50294999D02*
X188080002Y-48055000D01*
D15*
X188680002Y-42055000D02*
G75*
G02*
X188620002Y-42055000I-30000J0D01*
G01*
X188620002Y-42055000D02*
G75*
G02*
X188680002Y-42055000I30000J0D01*
G01*
D14*
G36*
X179245005Y-44990501D02*
G01*
X178008991Y-44990501D01*
X178008991Y-44681510D01*
X179245005Y-44681510D01*
X179245005Y-44990501D01*
G37*
G36*
X187227514Y-45865988D02*
G01*
X186918499Y-45865988D01*
X186918498Y-43805997D01*
X187227513Y-43805997D01*
X187227514Y-45865988D01*
G37*
G36*
X187691013Y-44990501D02*
G01*
X186454999Y-44990501D01*
X186454999Y-44681510D01*
X187691013Y-44681510D01*
X187691013Y-44990501D01*
G37*
%TO.C,FB1*%
D12*
X142065003Y-54439999D02*
X142065003Y-54760001D01*
X143085003Y-54439999D02*
X143085003Y-54760001D01*
%TO.C,L1*%
D16*
X158450000Y-85757500D02*
X158450000Y-89757500D01*
X162650000Y-85757500D02*
X162650000Y-89757500D01*
D15*
X158580000Y-85757500D02*
G75*
G02*
X158520000Y-85757500I-30000J0D01*
G01*
X158520000Y-85757500D02*
G75*
G02*
X158580000Y-85757500I30000J0D01*
G01*
%TO.C,FB2*%
D12*
X141839999Y-79990000D02*
X142160001Y-79990000D01*
X141839999Y-81010000D02*
X142160001Y-81010000D01*
%TO.C,X1*%
X151340003Y-43600001D02*
X151340003Y-45260001D01*
X151340003Y-45260001D02*
X153200003Y-45260001D01*
X151570003Y-41670001D02*
X155630003Y-41670001D01*
X151570003Y-45030001D02*
X151570003Y-41670001D01*
X155630003Y-41670001D02*
X155630003Y-45030001D01*
X155630003Y-45030001D02*
X151570003Y-45030001D01*
D15*
X152030003Y-44600001D02*
G75*
G02*
X151970003Y-44600001I-30000J0D01*
G01*
X151970003Y-44600001D02*
G75*
G02*
X152030003Y-44600001I30000J0D01*
G01*
%TO.C,C9*%
D12*
X163615000Y-75405000D02*
X163615000Y-72545000D01*
X163765000Y-72395000D02*
X165395000Y-72395000D01*
X165395000Y-75555000D02*
X163765000Y-75555000D01*
X166955000Y-75555000D02*
X168585000Y-75555000D01*
X168585000Y-72395000D02*
X166955000Y-72395000D01*
X168735000Y-75405000D02*
X168735000Y-72545000D01*
X163615000Y-72545000D02*
G75*
G02*
X163765000Y-72395000I150000J0D01*
G01*
X163765000Y-75555000D02*
G75*
G02*
X163615000Y-75405000I0J150000D01*
G01*
X168585000Y-72395000D02*
G75*
G02*
X168735000Y-72545000I0J-150000D01*
G01*
X168735000Y-75405000D02*
G75*
G02*
X168585000Y-75555000I-150000J0D01*
G01*
D15*
X164605000Y-75225000D02*
G75*
G02*
X164545000Y-75225000I-30000J0D01*
G01*
X164545000Y-75225000D02*
G75*
G02*
X164605000Y-75225000I30000J0D01*
G01*
%TO.C,J4*%
D18*
X193000000Y-87830000D02*
X193000001Y-49730000D01*
X193000001Y-49730000D02*
X205600000Y-49730000D01*
X205600000Y-49730000D02*
X205600000Y-87830000D01*
X205600000Y-87830000D02*
X193000000Y-87830000D01*
D16*
X192100000Y-84020000D02*
G75*
G02*
X191900000Y-84020000I-100000J0D01*
G01*
X191900000Y-84020000D02*
G75*
G02*
X192100000Y-84020000I100000J0D01*
G01*
%TO.C,D6*%
D12*
X151740000Y-71769999D02*
X151740000Y-74459999D01*
X153660000Y-71769999D02*
X151740000Y-71769999D01*
X153660000Y-74459999D02*
X153660000Y-71769999D01*
%TO.C,J1*%
D11*
X130830000Y-56880000D02*
X130830000Y-54120000D01*
X133480000Y-54230000D02*
X133480000Y-56880000D01*
X133480000Y-56880000D02*
X130830000Y-56880000D01*
X136129999Y-55500000D02*
X136130000Y-56880000D01*
X136130000Y-54120000D02*
X130830000Y-54120000D01*
X136130000Y-54230000D02*
X133480000Y-54230000D01*
X136130000Y-54230000D02*
X136130000Y-54120000D01*
X136130000Y-56880000D02*
X134750000Y-56879999D01*
%TO.C,C1*%
D12*
X177620002Y-63645000D02*
X185940001Y-63645000D01*
X177620002Y-68025000D02*
X177620002Y-63645000D01*
X177620002Y-69725000D02*
X177620002Y-74105000D01*
X177620002Y-74105000D02*
X185940001Y-74105000D01*
X185940001Y-63645000D02*
X188080002Y-65785001D01*
X185940001Y-74105000D02*
X188080002Y-71964999D01*
X188080002Y-65785001D02*
X188080002Y-68025000D01*
X188080002Y-71964999D02*
X188080002Y-69725000D01*
D15*
X188680002Y-63725000D02*
G75*
G02*
X188620002Y-63725000I-30000J0D01*
G01*
X188620002Y-63725000D02*
G75*
G02*
X188680002Y-63725000I30000J0D01*
G01*
D14*
G36*
X179245005Y-66660501D02*
G01*
X178008991Y-66660501D01*
X178008991Y-66351510D01*
X179245005Y-66351510D01*
X179245005Y-66660501D01*
G37*
G36*
X187227514Y-67535988D02*
G01*
X186918499Y-67535988D01*
X186918498Y-65475997D01*
X187227513Y-65475997D01*
X187227514Y-67535988D01*
G37*
G36*
X187691013Y-66660501D02*
G01*
X186454999Y-66660501D01*
X186454999Y-66351510D01*
X187691013Y-66351510D01*
X187691013Y-66660501D01*
G37*
%TO.C,U3*%
D12*
X173910261Y-41313744D02*
X172710259Y-41313744D01*
X173910260Y-43273744D02*
X173910261Y-41313744D01*
X172710260Y-43273744D02*
X172710259Y-41313744D01*
%TO.C,D4*%
X168639999Y-57860000D02*
X171329999Y-57860000D01*
X171329999Y-55940000D02*
X168639999Y-55940000D01*
X171329999Y-57860000D02*
X171329999Y-55940000D01*
%TO.C,D2*%
X168600000Y-55860000D02*
X171290000Y-55860000D01*
X171290000Y-53940000D02*
X168600000Y-53940000D01*
X171290000Y-55860000D02*
X171290000Y-53940000D01*
%TO.C,U1*%
X166340000Y-85260001D02*
X164560000Y-85260001D01*
X166340000Y-88339999D02*
X164560000Y-88339999D01*
D17*
X166900000Y-88470000D02*
G75*
G02*
X166600000Y-88470000I-150000J0D01*
G01*
X166600000Y-88470000D02*
G75*
G02*
X166900000Y-88470000I150000J0D01*
G01*
D15*
X166879999Y-88259999D02*
G75*
G02*
X166820001Y-88259999I-29999J0D01*
G01*
X166820001Y-88259999D02*
G75*
G02*
X166879999Y-88259999I29999J0D01*
G01*
%TO.C,S2*%
D18*
X161874999Y-48250000D02*
X161874999Y-48480000D01*
X161874999Y-48250000D02*
X165874999Y-48250000D01*
X161874999Y-51150000D02*
X161874999Y-50920000D01*
X165874999Y-48250000D02*
X165874999Y-48480000D01*
X165874999Y-50920000D02*
X165874999Y-51150000D01*
X165874999Y-51150000D02*
X161874999Y-51150000D01*
%TO.C,C7*%
D12*
X177670001Y-74420000D02*
X185990000Y-74420000D01*
X177670001Y-78800000D02*
X177670001Y-74420000D01*
X177670001Y-80500000D02*
X177670001Y-84880000D01*
X177670001Y-84880000D02*
X185990000Y-84880000D01*
X185990000Y-74420000D02*
X188130001Y-76560001D01*
X185990000Y-84880000D02*
X188130001Y-82739999D01*
X188130001Y-76560001D02*
X188130001Y-78800000D01*
X188130001Y-82739999D02*
X188130001Y-80500000D01*
D15*
X188730001Y-74500000D02*
G75*
G02*
X188670001Y-74500000I-30000J0D01*
G01*
X188670001Y-74500000D02*
G75*
G02*
X188730001Y-74500000I30000J0D01*
G01*
D14*
G36*
X179295004Y-77435501D02*
G01*
X178058990Y-77435501D01*
X178058990Y-77126510D01*
X179295004Y-77126510D01*
X179295004Y-77435501D01*
G37*
G36*
X187277513Y-78310988D02*
G01*
X186968498Y-78310988D01*
X186968497Y-76250997D01*
X187277512Y-76250997D01*
X187277513Y-78310988D01*
G37*
G36*
X187741012Y-77435501D02*
G01*
X186504998Y-77435501D01*
X186504998Y-77126510D01*
X187741012Y-77126510D01*
X187741012Y-77435501D01*
G37*
%TD*%
%LPC*%
D19*
%TO.C,TP13*%
X158250000Y-75000000D03*
%TD*%
%TO.C,TP12*%
X154000000Y-80250000D03*
%TD*%
D20*
%TO.C,R56*%
X142675000Y-50425000D03*
X143675000Y-50425000D03*
%TD*%
D21*
%TO.C,D1*%
X142460000Y-49250000D03*
X144040000Y-49250000D03*
%TD*%
D22*
%TO.C,H4*%
X198500000Y-93000000D03*
%TD*%
D23*
%TO.C,C64*%
X149388285Y-43855573D03*
X149388285Y-42855575D03*
%TD*%
D24*
%TO.C,C13*%
X165699999Y-67600000D03*
X164700001Y-67600000D03*
%TD*%
D25*
%TO.C,R24*%
X160375003Y-50200000D03*
X160375003Y-51199998D03*
%TD*%
D24*
%TO.C,C50*%
X144773919Y-54635217D03*
X143773921Y-54635217D03*
%TD*%
D23*
%TO.C,C11*%
X170200000Y-61299999D03*
X170200000Y-60300001D03*
%TD*%
D26*
%TO.C,U6*%
X151912500Y-76047501D03*
X151912500Y-76997500D03*
X151912500Y-77947499D03*
X154187500Y-77947499D03*
X154187500Y-76047501D03*
%TD*%
D27*
%TO.C,C47*%
X156653553Y-58846447D03*
X155946447Y-59553553D03*
%TD*%
D28*
%TO.C,U20*%
X137952500Y-83600000D03*
D29*
X138490000Y-83675000D03*
D28*
X139027500Y-83600000D03*
X139027500Y-81900000D03*
D29*
X138490000Y-81825000D03*
D28*
X137952500Y-81900000D03*
%TD*%
D30*
%TO.C,U7*%
X157575000Y-48450001D03*
X157575000Y-48950000D03*
X157575000Y-49450000D03*
X157575000Y-49950000D03*
X157575000Y-50450000D03*
X157575000Y-50950001D03*
X157575000Y-51450000D03*
X157575000Y-51950000D03*
X157575000Y-52450000D03*
X157575000Y-52950000D03*
X157575000Y-53449999D03*
X157575000Y-53950000D03*
X157575000Y-54450000D03*
X157575000Y-54950000D03*
X157575000Y-55450000D03*
X157575000Y-55949999D03*
D31*
X155649999Y-57875000D03*
X155150000Y-57875000D03*
X154650000Y-57875000D03*
X154150000Y-57875000D03*
X153650000Y-57875000D03*
X153149999Y-57875000D03*
X152650000Y-57875000D03*
X152150000Y-57875000D03*
X151650000Y-57875000D03*
X151150000Y-57875000D03*
X150650001Y-57875000D03*
X150150000Y-57875000D03*
X149650000Y-57875000D03*
X149150000Y-57875000D03*
X148650000Y-57875000D03*
X148150001Y-57875000D03*
D30*
X146225000Y-55949999D03*
X146225000Y-55450000D03*
X146225000Y-54950000D03*
X146225000Y-54450000D03*
X146225000Y-53950000D03*
X146225000Y-53449999D03*
X146225000Y-52950000D03*
X146225000Y-52450000D03*
X146225000Y-51950000D03*
X146225000Y-51450000D03*
X146225000Y-50950001D03*
X146225000Y-50450000D03*
X146225000Y-49950000D03*
X146225000Y-49450000D03*
X146225000Y-48950000D03*
X146225000Y-48450001D03*
D31*
X148150001Y-46525000D03*
X148650000Y-46525000D03*
X149150000Y-46525000D03*
X149650000Y-46525000D03*
X150150000Y-46525000D03*
X150650001Y-46525000D03*
X151150000Y-46525000D03*
X151650000Y-46525000D03*
X152150000Y-46525000D03*
X152650000Y-46525000D03*
X153149999Y-46525000D03*
X153650000Y-46525000D03*
X154150000Y-46525000D03*
X154650000Y-46525000D03*
X155150000Y-46525000D03*
X155649999Y-46525000D03*
%TD*%
D23*
%TO.C,C46*%
X144675003Y-56499998D03*
X144675003Y-55500000D03*
%TD*%
D24*
%TO.C,C15*%
X165688592Y-66587510D03*
X164688594Y-66587510D03*
%TD*%
D25*
%TO.C,C37*%
X150673984Y-82127254D03*
X150673984Y-83127252D03*
%TD*%
D27*
%TO.C,C45*%
X157219238Y-59412133D03*
X156512132Y-60119239D03*
%TD*%
D32*
%TO.C,U5*%
X148520000Y-81000000D03*
X148520000Y-81500000D03*
X148520000Y-82000000D03*
X148520000Y-82500000D03*
X149800000Y-82500000D03*
X149800000Y-82000000D03*
X149800000Y-81500000D03*
X149800000Y-81000000D03*
%TD*%
D20*
%TO.C,R30*%
X135890000Y-81450000D03*
X136890000Y-81450000D03*
%TD*%
D33*
%TO.C,C2*%
X187350003Y-58105000D03*
X178350001Y-58105000D03*
%TD*%
D23*
%TO.C,C49*%
X147275003Y-46499998D03*
X147275003Y-45500000D03*
%TD*%
D34*
%TO.C,U4*%
X167350000Y-68200000D03*
X167850000Y-68200000D03*
X168350000Y-68200000D03*
X168850000Y-68200000D03*
X169350000Y-68200000D03*
X169850000Y-68200000D03*
X170350000Y-68200000D03*
X170850000Y-68200000D03*
X171350000Y-68200000D03*
X171850000Y-68200000D03*
D35*
X172600000Y-67450000D03*
X172600000Y-66950000D03*
X172600000Y-66450000D03*
X172600000Y-65950000D03*
X172600000Y-65450000D03*
X172600000Y-64950000D03*
X172600000Y-64450000D03*
X172600000Y-63950000D03*
X172600000Y-63450000D03*
X172600000Y-62950000D03*
D34*
X171850000Y-62200000D03*
X171350000Y-62200000D03*
X170850000Y-62200000D03*
X170350000Y-62200000D03*
X169850000Y-62200000D03*
X169350000Y-62200000D03*
X168850000Y-62200000D03*
X168350000Y-62200000D03*
X167850000Y-62200000D03*
X167350000Y-62200000D03*
D35*
X166600000Y-62950000D03*
X166600000Y-63450000D03*
X166600000Y-63950000D03*
X166600000Y-64450000D03*
X166600000Y-64950000D03*
X166600000Y-65450000D03*
X166600000Y-65950000D03*
X166600000Y-66450000D03*
X166600000Y-66950000D03*
X166600000Y-67450000D03*
D36*
X169600000Y-65200000D03*
%TD*%
D23*
%TO.C,C83*%
X144775003Y-53799999D03*
X144775003Y-52800001D03*
%TD*%
D25*
%TO.C,C44*%
X159975003Y-48300001D03*
X159975003Y-49299999D03*
%TD*%
%TO.C,C48*%
X159075003Y-48300001D03*
X159075003Y-49299999D03*
%TD*%
%TO.C,R48*%
X150217986Y-43852909D03*
X150217986Y-42852911D03*
%TD*%
D37*
%TO.C,CN1*%
X130895000Y-66500000D03*
D38*
X130895000Y-69000000D03*
D39*
X140575000Y-69000000D03*
X140575000Y-66500000D03*
X138075000Y-69000000D03*
X138075000Y-66500000D03*
%TD*%
D37*
%TO.C,CN2*%
X130842500Y-72835000D03*
D38*
X130842500Y-75335000D03*
D39*
X140522500Y-75335000D03*
X140522500Y-72835000D03*
X138022500Y-75335000D03*
X138022500Y-72835000D03*
%TD*%
%TO.C,CN3*%
X140590133Y-62585527D03*
X140590133Y-60085527D03*
X138090133Y-62585527D03*
X138090133Y-60085527D03*
D37*
X130910133Y-60085527D03*
D38*
X130910133Y-62585527D03*
%TD*%
D22*
%TO.C,H1*%
X132000000Y-44500000D03*
%TD*%
%TO.C,H2*%
X198500000Y-44500000D03*
%TD*%
%TO.C,H3*%
X132000000Y-93000000D03*
%TD*%
D40*
%TO.C,J2*%
X132780000Y-80010000D03*
X132780000Y-85790000D03*
D41*
X134225000Y-79650000D03*
X134225000Y-80449999D03*
D42*
X134224999Y-81650000D03*
X134225000Y-82650000D03*
X134225000Y-83150000D03*
X134224999Y-84150000D03*
D41*
X134225000Y-85350001D03*
X134225000Y-86150000D03*
X134225000Y-86150000D03*
X134225000Y-85350001D03*
D42*
X134225000Y-84650000D03*
X134225000Y-83650000D03*
X134225000Y-82150000D03*
X134225000Y-81150000D03*
D41*
X134225000Y-80449999D03*
X134225000Y-79650000D03*
D43*
X133310000Y-78580000D03*
D44*
X129130000Y-78580000D03*
D43*
X133310000Y-87220000D03*
D44*
X129130000Y-87220000D03*
%TD*%
D45*
%TO.C,J3*%
X164050002Y-58290000D03*
X163034002Y-53210000D03*
X165066002Y-53210000D03*
D46*
X164685002Y-57020000D03*
X163415002Y-57020000D03*
X164685002Y-55750000D03*
X163415002Y-55750000D03*
X164685002Y-54480000D03*
X163415002Y-54480000D03*
%TD*%
D33*
%TO.C,C4*%
X187350002Y-90465000D03*
X178350000Y-90465000D03*
%TD*%
D24*
%TO.C,R3*%
X170099999Y-53400000D03*
X169100001Y-53400000D03*
%TD*%
D25*
%TO.C,R21*%
X137224999Y-42035002D03*
X137224999Y-43035000D03*
%TD*%
D47*
%TO.C,S1*%
X165950004Y-46200000D03*
X161800002Y-46200000D03*
%TD*%
D33*
%TO.C,C3*%
X187350003Y-47205000D03*
X178350001Y-47205000D03*
%TD*%
D48*
%TO.C,TH2*%
X137200000Y-43999999D03*
X137200000Y-45640001D03*
%TD*%
D49*
%TO.C,FB1*%
X142575003Y-53810001D03*
X142575003Y-55389999D03*
%TD*%
D50*
%TO.C,C25*%
X173847735Y-62665055D03*
X173140629Y-61957949D03*
%TD*%
D23*
%TO.C,C85*%
X151050000Y-43850001D03*
X151050000Y-42850003D03*
%TD*%
D51*
%TO.C,C17*%
X157430000Y-86857500D03*
X154470000Y-86857500D03*
%TD*%
D20*
%TO.C,R11*%
X165900000Y-89800000D03*
X166899998Y-89800000D03*
%TD*%
D52*
%TO.C,C27*%
X168450000Y-89937500D03*
X168450000Y-86977500D03*
%TD*%
D53*
%TO.C,L1*%
X160550000Y-86257500D03*
X160550000Y-89257500D03*
%TD*%
D25*
%TO.C,C54*%
X140030494Y-80474640D03*
X140030494Y-81474638D03*
%TD*%
D23*
%TO.C,C42*%
X147500000Y-81899998D03*
X147500000Y-80900000D03*
%TD*%
D54*
%TO.C,FB2*%
X141210001Y-80500000D03*
X142789999Y-80500000D03*
%TD*%
D23*
%TO.C,C93*%
X154600000Y-75009999D03*
X154600000Y-74010001D03*
%TD*%
D55*
%TO.C,C23*%
X168450000Y-82277500D03*
X168450000Y-85237500D03*
%TD*%
D51*
%TO.C,C19*%
X157430000Y-89257500D03*
X154470000Y-89257500D03*
%TD*%
D56*
%TO.C,X1*%
X152500003Y-44200001D03*
X154700003Y-44200001D03*
X154700003Y-42500001D03*
X152500003Y-42500001D03*
%TD*%
D24*
%TO.C,C43*%
X150549998Y-77009999D03*
X149550000Y-77009999D03*
%TD*%
D57*
%TO.C,C38*%
X174772450Y-41855988D03*
X174772450Y-43415988D03*
%TD*%
D20*
%TO.C,R51*%
X148660001Y-83400000D03*
X149659999Y-83400000D03*
%TD*%
D23*
%TO.C,C52*%
X143875003Y-53799998D03*
X143875003Y-52800000D03*
%TD*%
D25*
%TO.C,R4*%
X170179998Y-58400001D03*
X170179998Y-59399999D03*
%TD*%
D58*
%TO.C,C9*%
X164655000Y-73975000D03*
X167695000Y-73975000D03*
%TD*%
D25*
%TO.C,C24*%
X173600000Y-67033147D03*
X173600000Y-68033145D03*
%TD*%
D59*
%TO.C,J4*%
X197700000Y-84020000D03*
D60*
X197700000Y-76400000D03*
X197700000Y-68780000D03*
X197700000Y-61160000D03*
X197700000Y-53540000D03*
%TD*%
D25*
%TO.C,R43*%
X167000000Y-57000001D03*
X167000000Y-57999999D03*
%TD*%
D55*
%TO.C,C28*%
X170750000Y-82277500D03*
X170750000Y-85237500D03*
%TD*%
D61*
%TO.C,R2*%
X173235030Y-69597285D03*
X173942136Y-70304391D03*
%TD*%
D20*
%TO.C,R44*%
X174500000Y-67969028D03*
X175500000Y-67969028D03*
%TD*%
%TO.C,R29*%
X135890000Y-84650000D03*
X136890000Y-84650000D03*
%TD*%
D62*
%TO.C,D6*%
X152700000Y-72520000D03*
X152700000Y-74399998D03*
%TD*%
D63*
%TO.C,J1*%
X134750000Y-55500000D03*
D64*
X132210000Y-55500000D03*
%TD*%
D65*
%TO.C,R19*%
X176500000Y-41840000D03*
X176500000Y-43660000D03*
%TD*%
D66*
%TO.C,C6*%
X166000000Y-69400000D03*
X167560000Y-69400000D03*
%TD*%
D33*
%TO.C,C1*%
X187350003Y-68875000D03*
X178350001Y-68875000D03*
%TD*%
D67*
%TO.C,U3*%
X173310260Y-41873744D03*
X173310260Y-43273744D03*
%TD*%
D24*
%TO.C,C8*%
X168199999Y-70500000D03*
X167200001Y-70500000D03*
%TD*%
D61*
%TO.C,R1*%
X172624094Y-70218143D03*
X173331200Y-70925249D03*
%TD*%
D68*
%TO.C,D4*%
X170579998Y-56900000D03*
X168700000Y-56900000D03*
%TD*%
D20*
%TO.C,C76*%
X163375003Y-44100000D03*
X164375003Y-44100000D03*
%TD*%
D25*
%TO.C,C12*%
X138246642Y-44009460D03*
X138246642Y-45009458D03*
%TD*%
D69*
%TO.C,R18*%
X189000000Y-45500000D03*
X189000000Y-43680000D03*
%TD*%
D25*
%TO.C,C14*%
X169600000Y-71000000D03*
X169600000Y-71999998D03*
%TD*%
D51*
%TO.C,C10*%
X157430000Y-84457500D03*
X154470000Y-84457500D03*
%TD*%
D25*
%TO.C,C22*%
X163150000Y-86777502D03*
X163150000Y-87777500D03*
%TD*%
%TO.C,R23*%
X149810000Y-79300000D03*
X149810000Y-80299998D03*
%TD*%
D20*
%TO.C,R42*%
X174500000Y-67063586D03*
X175500000Y-67063586D03*
%TD*%
D25*
%TO.C,C87*%
X155900001Y-42850000D03*
X155900001Y-43849998D03*
%TD*%
D23*
%TO.C,C53*%
X143800000Y-56499998D03*
X143800000Y-55500000D03*
%TD*%
D25*
%TO.C,R5*%
X151100000Y-72900002D03*
X151100000Y-73900000D03*
%TD*%
D70*
%TO.C,C21*%
X171938017Y-69673487D03*
X172645123Y-68966381D03*
%TD*%
D25*
%TO.C,C55*%
X144250000Y-80500001D03*
X144250000Y-81499999D03*
%TD*%
D68*
%TO.C,D2*%
X170539999Y-54900000D03*
X168660001Y-54900000D03*
%TD*%
D71*
%TO.C,U1*%
X166600000Y-87750000D03*
X166600000Y-86800000D03*
X166600000Y-85850000D03*
X164300000Y-85850000D03*
X164300000Y-86800000D03*
X164300000Y-87750000D03*
%TD*%
D70*
%TO.C,R46*%
X173800000Y-61400000D03*
X174507106Y-60692894D03*
%TD*%
D47*
%TO.C,S2*%
X165950000Y-49700000D03*
X161799998Y-49700000D03*
%TD*%
D33*
%TO.C,C7*%
X187400002Y-79650000D03*
X178400000Y-79650000D03*
%TD*%
D23*
%TO.C,C20*%
X166750000Y-85077499D03*
X166750000Y-84077501D03*
%TD*%
D20*
%TO.C,R6*%
X164950001Y-88977500D03*
X165949999Y-88977500D03*
%TD*%
D25*
%TO.C,R22*%
X169279998Y-58400001D03*
X169279998Y-59399999D03*
%TD*%
D70*
%TO.C,R45*%
X174407988Y-62016276D03*
X175115094Y-61309170D03*
%TD*%
%LPD*%
M02*
