%TF.GenerationSoftware,KiCad,Pcbnew,10.0.0*%
%TF.CreationDate,2026-06-04T17:08:39+10:00*%
%TF.ProjectId,bench_stm32_esc,62656e63-685f-4737-946d-33325f657363,rev?*%
%TF.SameCoordinates,Original*%
%TF.FileFunction,Legend,Bot*%
%TF.FilePolarity,Positive*%
%FSLAX46Y46*%
G04 Gerber Fmt 4.6, Leading zero omitted, Abs format (unit mm)*
G04 Created by KiCad (PCBNEW 10.0.0) date 2026-06-04 17:08:39*
%MOMM*%
%LPD*%
G01*
G04 APERTURE LIST*
G04 Aperture macros list*
%AMRoundRect*
0 Rectangle with rounded corners*
0 $1 Rounding radius*
0 $2 $3 $4 $5 $6 $7 $8 $9 X,Y pos of 4 corners*
0 Add a 4 corners polygon primitive as box body*
4,1,4,$2,$3,$4,$5,$6,$7,$8,$9,$2,$3,0*
0 Add four circle primitives for the rounded corners*
1,1,$1+$1,$2,$3*
1,1,$1+$1,$4,$5*
1,1,$1+$1,$6,$7*
1,1,$1+$1,$8,$9*
0 Add four rect primitives between the rounded corners*
20,1,$1+$1,$2,$3,$4,$5,0*
20,1,$1+$1,$4,$5,$6,$7,0*
20,1,$1+$1,$6,$7,$8,$9,0*
20,1,$1+$1,$8,$9,$2,$3,0*%
%AMFreePoly0*
4,1,17,2.675000,1.605000,1.875000,1.605000,1.875000,0.935000,2.675000,0.935000,2.675000,0.335000,1.875000,0.335000,1.875000,-0.335000,2.675000,-0.335000,2.675000,-0.935000,1.875000,-0.935000,1.875000,-1.605000,2.675000,-1.605000,2.675000,-2.205000,-1.875000,-2.205000,-1.875000,2.205000,2.675000,2.205000,2.675000,1.605000,2.675000,1.605000,$1*%
G04 Aperture macros list end*
%ADD10C,0.100000*%
%ADD11C,0.120000*%
%ADD12C,0.150000*%
%ADD13C,0.060000*%
%ADD14C,3.200000*%
%ADD15RoundRect,0.159000X0.189000X-0.159000X0.189000X0.159000X-0.189000X0.159000X-0.189000X-0.159000X0*%
%ADD16RoundRect,0.159000X-0.189000X0.159000X-0.189000X-0.159000X0.189000X-0.159000X0.189000X0.159000X0*%
%ADD17RoundRect,0.159000X0.159000X0.189000X-0.159000X0.189000X-0.159000X-0.189000X0.159000X-0.189000X0*%
%ADD18RoundRect,0.250000X0.362500X1.425000X-0.362500X1.425000X-0.362500X-1.425000X0.362500X-1.425000X0*%
%ADD19O,0.350000X0.840000*%
%ADD20R,2.400000X1.650000*%
%ADD21RoundRect,0.062500X0.325000X0.062500X-0.325000X0.062500X-0.325000X-0.062500X0.325000X-0.062500X0*%
%ADD22RoundRect,0.062500X0.062500X0.325000X-0.062500X0.325000X-0.062500X-0.325000X0.062500X-0.325000X0*%
%ADD23R,1.750000X1.750000*%
%ADD24R,1.000000X0.650000*%
%ADD25C,1.600000*%
%ADD26C,1.750000*%
%ADD27C,1.800000*%
%ADD28C,0.650000*%
%ADD29O,2.100000X1.000000*%
%ADD30O,1.600000X1.000000*%
%ADD31C,0.990600*%
%ADD32FreePoly0,180.000000*%
%ADD33RoundRect,0.125000X0.300000X0.125000X-0.300000X0.125000X-0.300000X-0.125000X0.300000X-0.125000X0*%
%ADD34FreePoly0,0.000000*%
%ADD35RoundRect,0.125000X-0.300000X-0.125000X0.300000X-0.125000X0.300000X0.125000X-0.300000X0.125000X0*%
%ADD36RoundRect,0.159000X0.021213X-0.246073X0.246073X-0.021213X-0.021213X0.246073X-0.246073X0.021213X0*%
%ADD37RoundRect,0.159000X-0.021213X0.246073X-0.246073X0.021213X0.021213X-0.246073X0.246073X-0.021213X0*%
%ADD38RoundRect,0.102000X1.200000X-1.200000X1.200000X1.200000X-1.200000X1.200000X-1.200000X-1.200000X0*%
%ADD39C,2.604000*%
%ADD40R,1.700000X1.700000*%
%ADD41C,1.700000*%
%ADD42RoundRect,0.159000X-0.159000X-0.189000X0.159000X-0.189000X0.159000X0.189000X-0.159000X0.189000X0*%
%ADD43RoundRect,0.267317X-0.280683X-0.470683X0.280683X-0.470683X0.280683X0.470683X-0.280683X0.470683X0*%
%ADD44R,1.500000X1.500000*%
%ADD45RoundRect,0.266521X0.346479X0.671479X-0.346479X0.671479X-0.346479X-0.671479X0.346479X-0.671479X0*%
%ADD46RoundRect,0.219000X-0.219000X-0.294000X0.219000X-0.294000X0.219000X0.294000X-0.219000X0.294000X0*%
G04 APERTURE END LIST*
D10*
X177329961Y-75422306D02*
X177377580Y-75517544D01*
X177377580Y-75517544D02*
X177377580Y-75660401D01*
X177377580Y-75660401D02*
X177329961Y-75803258D01*
X177329961Y-75803258D02*
X177234723Y-75898496D01*
X177234723Y-75898496D02*
X177139485Y-75946115D01*
X177139485Y-75946115D02*
X176949009Y-75993734D01*
X176949009Y-75993734D02*
X176806152Y-75993734D01*
X176806152Y-75993734D02*
X176615676Y-75946115D01*
X176615676Y-75946115D02*
X176520438Y-75898496D01*
X176520438Y-75898496D02*
X176425200Y-75803258D01*
X176425200Y-75803258D02*
X176377580Y-75660401D01*
X176377580Y-75660401D02*
X176377580Y-75565163D01*
X176377580Y-75565163D02*
X176425200Y-75422306D01*
X176425200Y-75422306D02*
X176472819Y-75374687D01*
X176472819Y-75374687D02*
X176806152Y-75374687D01*
X176806152Y-75374687D02*
X176806152Y-75565163D01*
X176377580Y-74946115D02*
X177377580Y-74946115D01*
X177377580Y-74946115D02*
X176377580Y-74374687D01*
X176377580Y-74374687D02*
X177377580Y-74374687D01*
X176377580Y-73898496D02*
X177377580Y-73898496D01*
X177377580Y-73898496D02*
X177377580Y-73660401D01*
X177377580Y-73660401D02*
X177329961Y-73517544D01*
X177329961Y-73517544D02*
X177234723Y-73422306D01*
X177234723Y-73422306D02*
X177139485Y-73374687D01*
X177139485Y-73374687D02*
X176949009Y-73327068D01*
X176949009Y-73327068D02*
X176806152Y-73327068D01*
X176806152Y-73327068D02*
X176615676Y-73374687D01*
X176615676Y-73374687D02*
X176520438Y-73422306D01*
X176520438Y-73422306D02*
X176425200Y-73517544D01*
X176425200Y-73517544D02*
X176377580Y-73660401D01*
X176377580Y-73660401D02*
X176377580Y-73898496D01*
X177329961Y-63172306D02*
X177377580Y-63267544D01*
X177377580Y-63267544D02*
X177377580Y-63410401D01*
X177377580Y-63410401D02*
X177329961Y-63553258D01*
X177329961Y-63553258D02*
X177234723Y-63648496D01*
X177234723Y-63648496D02*
X177139485Y-63696115D01*
X177139485Y-63696115D02*
X176949009Y-63743734D01*
X176949009Y-63743734D02*
X176806152Y-63743734D01*
X176806152Y-63743734D02*
X176615676Y-63696115D01*
X176615676Y-63696115D02*
X176520438Y-63648496D01*
X176520438Y-63648496D02*
X176425200Y-63553258D01*
X176425200Y-63553258D02*
X176377580Y-63410401D01*
X176377580Y-63410401D02*
X176377580Y-63315163D01*
X176377580Y-63315163D02*
X176425200Y-63172306D01*
X176425200Y-63172306D02*
X176472819Y-63124687D01*
X176472819Y-63124687D02*
X176806152Y-63124687D01*
X176806152Y-63124687D02*
X176806152Y-63315163D01*
X176377580Y-62696115D02*
X177377580Y-62696115D01*
X177377580Y-62696115D02*
X176377580Y-62124687D01*
X176377580Y-62124687D02*
X177377580Y-62124687D01*
X176377580Y-61648496D02*
X177377580Y-61648496D01*
X177377580Y-61648496D02*
X177377580Y-61410401D01*
X177377580Y-61410401D02*
X177329961Y-61267544D01*
X177329961Y-61267544D02*
X177234723Y-61172306D01*
X177234723Y-61172306D02*
X177139485Y-61124687D01*
X177139485Y-61124687D02*
X176949009Y-61077068D01*
X176949009Y-61077068D02*
X176806152Y-61077068D01*
X176806152Y-61077068D02*
X176615676Y-61124687D01*
X176615676Y-61124687D02*
X176520438Y-61172306D01*
X176520438Y-61172306D02*
X176425200Y-61267544D01*
X176425200Y-61267544D02*
X176377580Y-61410401D01*
X176377580Y-61410401D02*
X176377580Y-61648496D01*
X177079961Y-51422306D02*
X177127580Y-51517544D01*
X177127580Y-51517544D02*
X177127580Y-51660401D01*
X177127580Y-51660401D02*
X177079961Y-51803258D01*
X177079961Y-51803258D02*
X176984723Y-51898496D01*
X176984723Y-51898496D02*
X176889485Y-51946115D01*
X176889485Y-51946115D02*
X176699009Y-51993734D01*
X176699009Y-51993734D02*
X176556152Y-51993734D01*
X176556152Y-51993734D02*
X176365676Y-51946115D01*
X176365676Y-51946115D02*
X176270438Y-51898496D01*
X176270438Y-51898496D02*
X176175200Y-51803258D01*
X176175200Y-51803258D02*
X176127580Y-51660401D01*
X176127580Y-51660401D02*
X176127580Y-51565163D01*
X176127580Y-51565163D02*
X176175200Y-51422306D01*
X176175200Y-51422306D02*
X176222819Y-51374687D01*
X176222819Y-51374687D02*
X176556152Y-51374687D01*
X176556152Y-51374687D02*
X176556152Y-51565163D01*
X176127580Y-50946115D02*
X177127580Y-50946115D01*
X177127580Y-50946115D02*
X176127580Y-50374687D01*
X176127580Y-50374687D02*
X177127580Y-50374687D01*
X176127580Y-49898496D02*
X177127580Y-49898496D01*
X177127580Y-49898496D02*
X177127580Y-49660401D01*
X177127580Y-49660401D02*
X177079961Y-49517544D01*
X177079961Y-49517544D02*
X176984723Y-49422306D01*
X176984723Y-49422306D02*
X176889485Y-49374687D01*
X176889485Y-49374687D02*
X176699009Y-49327068D01*
X176699009Y-49327068D02*
X176556152Y-49327068D01*
X176556152Y-49327068D02*
X176365676Y-49374687D01*
X176365676Y-49374687D02*
X176270438Y-49422306D01*
X176270438Y-49422306D02*
X176175200Y-49517544D01*
X176175200Y-49517544D02*
X176127580Y-49660401D01*
X176127580Y-49660401D02*
X176127580Y-49898496D01*
X195127580Y-52196115D02*
X196127580Y-52196115D01*
X196127580Y-52196115D02*
X195413295Y-51862782D01*
X195413295Y-51862782D02*
X196127580Y-51529449D01*
X196127580Y-51529449D02*
X195127580Y-51529449D01*
X196127580Y-50862782D02*
X196127580Y-50672306D01*
X196127580Y-50672306D02*
X196079961Y-50577068D01*
X196079961Y-50577068D02*
X195984723Y-50481830D01*
X195984723Y-50481830D02*
X195794247Y-50434211D01*
X195794247Y-50434211D02*
X195460914Y-50434211D01*
X195460914Y-50434211D02*
X195270438Y-50481830D01*
X195270438Y-50481830D02*
X195175200Y-50577068D01*
X195175200Y-50577068D02*
X195127580Y-50672306D01*
X195127580Y-50672306D02*
X195127580Y-50862782D01*
X195127580Y-50862782D02*
X195175200Y-50958020D01*
X195175200Y-50958020D02*
X195270438Y-51053258D01*
X195270438Y-51053258D02*
X195460914Y-51100877D01*
X195460914Y-51100877D02*
X195794247Y-51100877D01*
X195794247Y-51100877D02*
X195984723Y-51053258D01*
X195984723Y-51053258D02*
X196079961Y-50958020D01*
X196079961Y-50958020D02*
X196127580Y-50862782D01*
X196127580Y-50148496D02*
X196127580Y-49577068D01*
X195127580Y-49862782D02*
X196127580Y-49862782D01*
X195222819Y-48672306D02*
X195175200Y-48719925D01*
X195175200Y-48719925D02*
X195127580Y-48862782D01*
X195127580Y-48862782D02*
X195127580Y-48958020D01*
X195127580Y-48958020D02*
X195175200Y-49100877D01*
X195175200Y-49100877D02*
X195270438Y-49196115D01*
X195270438Y-49196115D02*
X195365676Y-49243734D01*
X195365676Y-49243734D02*
X195556152Y-49291353D01*
X195556152Y-49291353D02*
X195699009Y-49291353D01*
X195699009Y-49291353D02*
X195889485Y-49243734D01*
X195889485Y-49243734D02*
X195984723Y-49196115D01*
X195984723Y-49196115D02*
X196079961Y-49100877D01*
X196079961Y-49100877D02*
X196127580Y-48958020D01*
X196127580Y-48958020D02*
X196127580Y-48862782D01*
X196127580Y-48862782D02*
X196079961Y-48719925D01*
X196079961Y-48719925D02*
X196032342Y-48672306D01*
X194877580Y-63946115D02*
X195877580Y-63946115D01*
X195877580Y-63946115D02*
X195163295Y-63612782D01*
X195163295Y-63612782D02*
X195877580Y-63279449D01*
X195877580Y-63279449D02*
X194877580Y-63279449D01*
X195877580Y-62612782D02*
X195877580Y-62422306D01*
X195877580Y-62422306D02*
X195829961Y-62327068D01*
X195829961Y-62327068D02*
X195734723Y-62231830D01*
X195734723Y-62231830D02*
X195544247Y-62184211D01*
X195544247Y-62184211D02*
X195210914Y-62184211D01*
X195210914Y-62184211D02*
X195020438Y-62231830D01*
X195020438Y-62231830D02*
X194925200Y-62327068D01*
X194925200Y-62327068D02*
X194877580Y-62422306D01*
X194877580Y-62422306D02*
X194877580Y-62612782D01*
X194877580Y-62612782D02*
X194925200Y-62708020D01*
X194925200Y-62708020D02*
X195020438Y-62803258D01*
X195020438Y-62803258D02*
X195210914Y-62850877D01*
X195210914Y-62850877D02*
X195544247Y-62850877D01*
X195544247Y-62850877D02*
X195734723Y-62803258D01*
X195734723Y-62803258D02*
X195829961Y-62708020D01*
X195829961Y-62708020D02*
X195877580Y-62612782D01*
X195877580Y-61898496D02*
X195877580Y-61327068D01*
X194877580Y-61612782D02*
X195877580Y-61612782D01*
X195401390Y-60660401D02*
X195353771Y-60517544D01*
X195353771Y-60517544D02*
X195306152Y-60469925D01*
X195306152Y-60469925D02*
X195210914Y-60422306D01*
X195210914Y-60422306D02*
X195068057Y-60422306D01*
X195068057Y-60422306D02*
X194972819Y-60469925D01*
X194972819Y-60469925D02*
X194925200Y-60517544D01*
X194925200Y-60517544D02*
X194877580Y-60612782D01*
X194877580Y-60612782D02*
X194877580Y-60993734D01*
X194877580Y-60993734D02*
X195877580Y-60993734D01*
X195877580Y-60993734D02*
X195877580Y-60660401D01*
X195877580Y-60660401D02*
X195829961Y-60565163D01*
X195829961Y-60565163D02*
X195782342Y-60517544D01*
X195782342Y-60517544D02*
X195687104Y-60469925D01*
X195687104Y-60469925D02*
X195591866Y-60469925D01*
X195591866Y-60469925D02*
X195496628Y-60517544D01*
X195496628Y-60517544D02*
X195449009Y-60565163D01*
X195449009Y-60565163D02*
X195401390Y-60660401D01*
X195401390Y-60660401D02*
X195401390Y-60993734D01*
X195377580Y-76446115D02*
X196377580Y-76446115D01*
X196377580Y-76446115D02*
X195663295Y-76112782D01*
X195663295Y-76112782D02*
X196377580Y-75779449D01*
X196377580Y-75779449D02*
X195377580Y-75779449D01*
X196377580Y-75112782D02*
X196377580Y-74922306D01*
X196377580Y-74922306D02*
X196329961Y-74827068D01*
X196329961Y-74827068D02*
X196234723Y-74731830D01*
X196234723Y-74731830D02*
X196044247Y-74684211D01*
X196044247Y-74684211D02*
X195710914Y-74684211D01*
X195710914Y-74684211D02*
X195520438Y-74731830D01*
X195520438Y-74731830D02*
X195425200Y-74827068D01*
X195425200Y-74827068D02*
X195377580Y-74922306D01*
X195377580Y-74922306D02*
X195377580Y-75112782D01*
X195377580Y-75112782D02*
X195425200Y-75208020D01*
X195425200Y-75208020D02*
X195520438Y-75303258D01*
X195520438Y-75303258D02*
X195710914Y-75350877D01*
X195710914Y-75350877D02*
X196044247Y-75350877D01*
X196044247Y-75350877D02*
X196234723Y-75303258D01*
X196234723Y-75303258D02*
X196329961Y-75208020D01*
X196329961Y-75208020D02*
X196377580Y-75112782D01*
X196377580Y-74398496D02*
X196377580Y-73827068D01*
X195377580Y-74112782D02*
X196377580Y-74112782D01*
X195663295Y-73541353D02*
X195663295Y-73065163D01*
X195377580Y-73636591D02*
X196377580Y-73303258D01*
X196377580Y-73303258D02*
X195377580Y-72969925D01*
X194627580Y-88338972D02*
X193627580Y-88005639D01*
X193627580Y-88005639D02*
X194627580Y-87672306D01*
X193627580Y-87338972D02*
X194627580Y-87338972D01*
X194627580Y-87338972D02*
X193913295Y-87005639D01*
X193913295Y-87005639D02*
X194627580Y-86672306D01*
X194627580Y-86672306D02*
X193627580Y-86672306D01*
%TO.C,R9*%
D11*
X186939564Y-67890000D02*
X182585436Y-67890000D01*
X186939564Y-71310000D02*
X182585436Y-71310000D01*
%TO.C,R8*%
X186377064Y-79690000D02*
X182022936Y-79690000D01*
X186377064Y-83110000D02*
X182022936Y-83110000D01*
%TO.C,U8*%
D12*
X133090000Y-49170000D02*
X133090000Y-52330000D01*
X133090000Y-52330000D02*
X133330000Y-52330000D01*
X133330000Y-49170000D02*
X133090000Y-49170000D01*
X136010000Y-49170000D02*
X136250000Y-49170000D01*
X136250000Y-49170000D02*
X136250000Y-52330000D01*
X136250000Y-52330000D02*
X136010000Y-52330000D01*
D13*
X133200000Y-49250000D02*
G75*
G02*
X133140000Y-49250000I-30000J0D01*
G01*
X133140000Y-49250000D02*
G75*
G02*
X133200000Y-49250000I30000J0D01*
G01*
D12*
X133349999Y-48840001D02*
G75*
G02*
X133190001Y-48840001I-79999J0D01*
G01*
X133190001Y-48840001D02*
G75*
G02*
X133349999Y-48840001I79999J0D01*
G01*
%TO.C,R12*%
D11*
X186377064Y-55490000D02*
X182022936Y-55490000D01*
X186377064Y-58910000D02*
X182022936Y-58910000D01*
%TO.C,U2*%
X163390000Y-66890000D02*
X163390000Y-67365000D01*
X163390000Y-69635000D02*
X163390000Y-70110000D01*
X163390000Y-70110000D02*
X163865000Y-70110000D01*
X163865000Y-66890000D02*
X163390000Y-66890000D01*
X166135000Y-70110000D02*
X166610000Y-70110000D01*
X166610000Y-66890000D02*
X166135000Y-66890000D01*
X166610000Y-67365000D02*
X166610000Y-66890000D01*
X166610000Y-70110000D02*
X166610000Y-69635000D01*
X167450000Y-67990000D02*
X167120000Y-67750000D01*
X167450000Y-67510000D01*
X167450000Y-67990000D01*
G36*
X167450000Y-67990000D02*
G01*
X167120000Y-67750000D01*
X167450000Y-67510000D01*
X167450000Y-67990000D01*
G37*
%TO.C,D3*%
D13*
X142080000Y-72450000D02*
G75*
G02*
X142020000Y-72450000I-30000J0D01*
G01*
X142020000Y-72450000D02*
G75*
G02*
X142080000Y-72450000I30000J0D01*
G01*
D12*
X143980000Y-69470001D02*
X143980000Y-70510000D01*
X142520000Y-69470001D02*
X143980000Y-69470001D01*
X142520000Y-70540000D02*
X142520000Y-71460000D01*
X143980000Y-72529999D02*
X143980000Y-71490000D01*
X142520000Y-72529999D02*
X143980000Y-72529999D01*
%TO.C,Q1*%
D11*
X185090000Y-72170000D02*
X190770000Y-72170000D01*
X185090000Y-77540000D02*
X191210000Y-77540000D01*
X191281622Y-72434730D02*
X191041622Y-72104730D01*
X191521622Y-72104730D01*
X191281622Y-72434730D01*
G36*
X191281622Y-72434730D02*
G01*
X191041622Y-72104730D01*
X191521622Y-72104730D01*
X191281622Y-72434730D01*
G37*
%TO.C,Q2*%
X194805000Y-77970000D02*
X188685000Y-77970000D01*
X194805000Y-83340000D02*
X189125000Y-83340000D01*
X188853378Y-83405270D02*
X188373378Y-83405270D01*
X188613378Y-83075270D01*
X188853378Y-83405270D01*
G36*
X188853378Y-83405270D02*
G01*
X188373378Y-83405270D01*
X188613378Y-83075270D01*
X188853378Y-83405270D01*
G37*
%TO.C,Q3*%
X185290000Y-59900000D02*
X190970000Y-59900000D01*
X185290000Y-65270000D02*
X191410000Y-65270000D01*
X191481622Y-60164730D02*
X191241622Y-59834730D01*
X191721622Y-59834730D01*
X191481622Y-60164730D01*
G36*
X191481622Y-60164730D02*
G01*
X191241622Y-59834730D01*
X191721622Y-59834730D01*
X191481622Y-60164730D01*
G37*
%TO.C,Q4*%
X195360000Y-66230000D02*
X189240000Y-66230000D01*
X195360000Y-71600000D02*
X189680000Y-71600000D01*
X189408378Y-71665270D02*
X188928378Y-71665270D01*
X189168378Y-71335270D01*
X189408378Y-71665270D01*
G36*
X189408378Y-71665270D02*
G01*
X188928378Y-71665270D01*
X189168378Y-71335270D01*
X189408378Y-71665270D01*
G37*
%TO.C,Q5*%
X185140000Y-47820000D02*
X190820000Y-47820000D01*
X185140000Y-53190000D02*
X191260000Y-53190000D01*
X191331622Y-48084730D02*
X191091622Y-47754730D01*
X191571622Y-47754730D01*
X191331622Y-48084730D01*
G36*
X191331622Y-48084730D02*
G01*
X191091622Y-47754730D01*
X191571622Y-47754730D01*
X191331622Y-48084730D01*
G37*
%TO.C,Q6*%
X194710000Y-53670000D02*
X188590000Y-53670000D01*
X194710000Y-59040000D02*
X189030000Y-59040000D01*
X188758378Y-59105270D02*
X188278378Y-59105270D01*
X188518378Y-58775270D01*
X188758378Y-59105270D01*
G36*
X188758378Y-59105270D02*
G01*
X188278378Y-59105270D01*
X188518378Y-58775270D01*
X188758378Y-59105270D01*
G37*
%TO.C,TP9*%
X177500000Y-49700000D02*
X177500000Y-51600000D01*
X177500000Y-51600000D02*
X179400000Y-51600000D01*
X179400000Y-49700000D02*
X177500000Y-49700000D01*
X179400000Y-51600000D02*
X179400000Y-49700000D01*
%TO.C,TP8*%
X193100000Y-74000000D02*
X193100000Y-75900000D01*
X193100000Y-75900000D02*
X195000000Y-75900000D01*
X195000000Y-74000000D02*
X193100000Y-74000000D01*
X195000000Y-75900000D02*
X195000000Y-74000000D01*
%TO.C,TP1*%
X191250000Y-86650000D02*
X191250000Y-88550000D01*
X191250000Y-88550000D02*
X193150000Y-88550000D01*
X193150000Y-86650000D02*
X191250000Y-86650000D01*
X193150000Y-88550000D02*
X193150000Y-86650000D01*
%TO.C,TP11*%
X177500000Y-73800000D02*
X177500000Y-75700000D01*
X177500000Y-75700000D02*
X179400000Y-75700000D01*
X179400000Y-73800000D02*
X177500000Y-73800000D01*
X179400000Y-75700000D02*
X179400000Y-73800000D01*
%TO.C,TP10*%
X177650000Y-61700000D02*
X177650000Y-63600000D01*
X177650000Y-63600000D02*
X179550000Y-63600000D01*
X179550000Y-61700000D02*
X177650000Y-61700000D01*
X179550000Y-63600000D02*
X179550000Y-61700000D01*
%TO.C,TP7*%
X192850000Y-49750000D02*
X192850000Y-51650000D01*
X192850000Y-51650000D02*
X194750000Y-51650000D01*
X194750000Y-49750000D02*
X192850000Y-49750000D01*
X194750000Y-51650000D02*
X194750000Y-49750000D01*
%TO.C,TP6*%
X192700000Y-61800000D02*
X192700000Y-63700000D01*
X192700000Y-63700000D02*
X194600000Y-63700000D01*
X194600000Y-61800000D02*
X192700000Y-61800000D01*
X194600000Y-63700000D02*
X194600000Y-61800000D01*
%TD*%
%LPC*%
D14*
%TO.C,H4*%
X198500000Y-93000000D03*
%TD*%
D15*
%TO.C,C58*%
X147000000Y-54750002D03*
X147000000Y-55750000D03*
%TD*%
%TO.C,C57*%
X148823875Y-54731473D03*
X148823875Y-55731471D03*
%TD*%
%TO.C,C56*%
X151250000Y-55500001D03*
X151250000Y-56499999D03*
%TD*%
D16*
%TO.C,R55*%
X162095641Y-58266423D03*
X162095641Y-59266421D03*
%TD*%
D15*
%TO.C,C66*%
X148140499Y-51439800D03*
X148140499Y-50439802D03*
%TD*%
%TO.C,C51*%
X146338276Y-51430680D03*
X146338276Y-50430682D03*
%TD*%
D17*
%TO.C,C33*%
X137249999Y-53000000D03*
X136250001Y-53000000D03*
%TD*%
D15*
%TO.C,C63*%
X173400000Y-44499998D03*
X173400000Y-43500000D03*
%TD*%
D16*
%TO.C,C31*%
X134042473Y-47250001D03*
X134042473Y-48249999D03*
%TD*%
D15*
%TO.C,C62*%
X178600000Y-43499998D03*
X178600000Y-42500000D03*
%TD*%
%TO.C,C36*%
X135000000Y-48249999D03*
X135000000Y-47250001D03*
%TD*%
%TO.C,R39*%
X179400000Y-43499998D03*
X179400000Y-42500000D03*
%TD*%
%TO.C,C61*%
X182900000Y-42749999D03*
X182900000Y-41750001D03*
%TD*%
D18*
%TO.C,R9*%
X187725000Y-69600000D03*
X181800000Y-69600000D03*
%TD*%
D15*
%TO.C,R38*%
X174300000Y-44499999D03*
X174300000Y-43500001D03*
%TD*%
D18*
%TO.C,R8*%
X187162500Y-81400000D03*
X181237500Y-81400000D03*
%TD*%
D19*
%TO.C,U8*%
X133690000Y-49250000D03*
X134350000Y-49250000D03*
X135000000Y-49250000D03*
X135650000Y-49250000D03*
X135650000Y-52250000D03*
X135000000Y-52250000D03*
X134350000Y-52250000D03*
X133690000Y-52250000D03*
D20*
X134670000Y-50750000D03*
%TD*%
D15*
%TO.C,R40*%
X182100000Y-42749999D03*
X182100000Y-41750001D03*
%TD*%
D18*
%TO.C,R12*%
X187162500Y-57200000D03*
X181237500Y-57200000D03*
%TD*%
D16*
%TO.C,C41*%
X151826858Y-48599802D03*
X151826858Y-49599800D03*
%TD*%
D15*
%TO.C,R54*%
X143506045Y-44872507D03*
X143506045Y-43872509D03*
%TD*%
D21*
%TO.C,U2*%
X166462500Y-67750000D03*
X166462500Y-68250000D03*
X166462500Y-68750000D03*
X166462500Y-69250000D03*
D22*
X165750000Y-69962500D03*
X165250000Y-69962500D03*
X164750000Y-69962500D03*
X164250000Y-69962500D03*
D21*
X163537500Y-69250000D03*
X163537500Y-68750000D03*
X163537500Y-68250000D03*
X163537500Y-67750000D03*
D22*
X164250000Y-67037500D03*
X164750000Y-67037500D03*
X165250000Y-67037500D03*
X165750000Y-67037500D03*
D23*
X165000000Y-68500000D03*
%TD*%
D24*
%TO.C,D3*%
X144250000Y-71000000D03*
X142250000Y-70050000D03*
X142250000Y-71950000D03*
%TD*%
D15*
%TO.C,R53*%
X143500000Y-46749999D03*
X143500000Y-45750001D03*
%TD*%
D25*
%TO.C,CN1*%
X130895000Y-66500000D03*
D26*
X130895000Y-69000000D03*
D27*
X140575000Y-69000000D03*
X140575000Y-66500000D03*
X138075000Y-69000000D03*
X138075000Y-66500000D03*
%TD*%
D25*
%TO.C,CN2*%
X130842500Y-72835000D03*
D26*
X130842500Y-75335000D03*
D27*
X140522500Y-75335000D03*
X140522500Y-72835000D03*
X138022500Y-75335000D03*
X138022500Y-72835000D03*
%TD*%
%TO.C,CN3*%
X140590133Y-62585527D03*
X140590133Y-60085527D03*
X138090133Y-62585527D03*
X138090133Y-60085527D03*
D25*
X130910133Y-60085527D03*
D26*
X130910133Y-62585527D03*
%TD*%
D14*
%TO.C,H1*%
X132000000Y-44500000D03*
%TD*%
%TO.C,H2*%
X198500000Y-44500000D03*
%TD*%
%TO.C,H3*%
X132000000Y-93000000D03*
%TD*%
D28*
%TO.C,J2*%
X132780000Y-80010000D03*
X132780000Y-85790000D03*
D29*
X133310000Y-78580000D03*
D30*
X129130000Y-78580000D03*
D29*
X133310000Y-87220000D03*
D30*
X129130000Y-87220000D03*
%TD*%
D31*
%TO.C,J3*%
X164050002Y-58290000D03*
X163034002Y-53210000D03*
X165066002Y-53210000D03*
%TD*%
D32*
%TO.C,Q1*%
X187500001Y-74855000D03*
D33*
X191050000Y-72950000D03*
X191050000Y-74220000D03*
X191050000Y-75490000D03*
X191050000Y-76760000D03*
%TD*%
D34*
%TO.C,Q2*%
X192394999Y-80655000D03*
D35*
X188845000Y-82560000D03*
X188845000Y-81290000D03*
X188845000Y-80020000D03*
X188845000Y-78750000D03*
%TD*%
D32*
%TO.C,Q3*%
X187700001Y-62585000D03*
D33*
X191250000Y-60680000D03*
X191250000Y-61950000D03*
X191250000Y-63220000D03*
X191250000Y-64490000D03*
%TD*%
D34*
%TO.C,Q4*%
X192949999Y-68915000D03*
D35*
X189400000Y-70820000D03*
X189400000Y-69550000D03*
X189400000Y-68280000D03*
X189400000Y-67010000D03*
%TD*%
D32*
%TO.C,Q5*%
X187550001Y-50505000D03*
D33*
X191100000Y-48600000D03*
X191100000Y-49870000D03*
X191100000Y-51140000D03*
X191100000Y-52410000D03*
%TD*%
D34*
%TO.C,Q6*%
X192299999Y-56355000D03*
D35*
X188750000Y-58260000D03*
X188750000Y-56990000D03*
X188750000Y-55720000D03*
X188750000Y-54450000D03*
%TD*%
D15*
%TO.C,R50*%
X141750000Y-45843461D03*
X141750000Y-44843463D03*
%TD*%
%TO.C,R52*%
X141750000Y-43999999D03*
X141750000Y-43000001D03*
%TD*%
D36*
%TO.C,C40*%
X149971860Y-43378556D03*
X149264754Y-44085662D03*
%TD*%
D37*
%TO.C,C39*%
X148632740Y-44853013D03*
X147925634Y-45560119D03*
%TD*%
D15*
%TO.C,C67*%
X149972859Y-51449004D03*
X149972859Y-50449006D03*
%TD*%
%TO.C,R34*%
X149087391Y-50432397D03*
X149087391Y-51432395D03*
%TD*%
%TO.C,R41*%
X145420402Y-51422142D03*
X145420402Y-50422144D03*
%TD*%
%TO.C,R36*%
X147246245Y-51432447D03*
X147246245Y-50432449D03*
%TD*%
%TO.C,R20*%
X152140909Y-56489020D03*
X152140909Y-55489022D03*
%TD*%
%TO.C,R16*%
X149714951Y-55748841D03*
X149714951Y-54748843D03*
%TD*%
%TO.C,R15*%
X147894839Y-55742421D03*
X147894839Y-54742423D03*
%TD*%
D38*
%TO.C,J4*%
X197700000Y-84020000D03*
D39*
X197700000Y-76400000D03*
X197700000Y-68780000D03*
X197700000Y-61160000D03*
X197700000Y-53540000D03*
%TD*%
D40*
%TO.C,J1*%
X134750000Y-55500000D03*
D41*
X132210000Y-55500000D03*
%TD*%
D15*
%TO.C,R47*%
X152675003Y-49599999D03*
X152675003Y-48600001D03*
%TD*%
D42*
%TO.C,R17*%
X183159291Y-46059291D03*
X184159289Y-46059291D03*
%TD*%
%TO.C,R31*%
X187189149Y-67126221D03*
X188189147Y-67126221D03*
%TD*%
D16*
%TO.C,C32*%
X196100000Y-55800002D03*
X196100000Y-56800000D03*
%TD*%
D42*
%TO.C,R25*%
X186567446Y-53729111D03*
X187567444Y-53729111D03*
%TD*%
D16*
%TO.C,C65*%
X150160178Y-48563208D03*
X150160178Y-49563206D03*
%TD*%
D43*
%TO.C,R13*%
X197390000Y-57200000D03*
X199210000Y-57200000D03*
%TD*%
D42*
%TO.C,R26*%
X187205441Y-65903718D03*
X188205439Y-65903718D03*
%TD*%
D17*
%TO.C,R37*%
X187899998Y-44400000D03*
X186900000Y-44400000D03*
%TD*%
D44*
%TO.C,TP9*%
X178450000Y-50650000D03*
%TD*%
D17*
%TO.C,R35*%
X187900000Y-43500000D03*
X186900000Y-43500000D03*
%TD*%
D43*
%TO.C,R10*%
X197300000Y-63800000D03*
X199120000Y-63800000D03*
%TD*%
D15*
%TO.C,C26*%
X196100000Y-65199999D03*
X196100000Y-64200001D03*
%TD*%
D45*
%TO.C,C73*%
X183650000Y-49400000D03*
X180690000Y-49400000D03*
%TD*%
D44*
%TO.C,TP8*%
X194050000Y-74950000D03*
%TD*%
D42*
%TO.C,R28*%
X186562835Y-54600000D03*
X187562833Y-54600000D03*
%TD*%
D17*
%TO.C,R14*%
X137582308Y-55686301D03*
X136582310Y-55686301D03*
%TD*%
D44*
%TO.C,TP1*%
X192200000Y-87600000D03*
%TD*%
D43*
%TO.C,R7*%
X197590000Y-80400000D03*
X199410000Y-80400000D03*
%TD*%
D45*
%TO.C,C68*%
X183652717Y-51806995D03*
X180692717Y-51806995D03*
%TD*%
D17*
%TO.C,C30*%
X164275000Y-65975000D03*
X163275000Y-65975000D03*
%TD*%
D45*
%TO.C,C70*%
X183546201Y-75939468D03*
X180586201Y-75939468D03*
%TD*%
D17*
%TO.C,R33*%
X187900000Y-42600000D03*
X186900000Y-42600000D03*
%TD*%
D45*
%TO.C,C71*%
X183550000Y-73600000D03*
X180590000Y-73600000D03*
%TD*%
D17*
%TO.C,C29*%
X164275000Y-65125000D03*
X163275000Y-65125000D03*
%TD*%
D44*
%TO.C,TP11*%
X178450000Y-74750000D03*
%TD*%
D15*
%TO.C,R49*%
X151000000Y-49600000D03*
X151000000Y-48600002D03*
%TD*%
D42*
%TO.C,R27*%
X186626019Y-78095926D03*
X187626017Y-78095926D03*
%TD*%
D44*
%TO.C,TP10*%
X178600000Y-62650000D03*
%TD*%
D46*
%TO.C,TH1*%
X185100000Y-46100000D03*
X186740002Y-46100000D03*
%TD*%
D45*
%TO.C,C72*%
X183780000Y-61475000D03*
X180820000Y-61475000D03*
%TD*%
D42*
%TO.C,C5*%
X185440003Y-47200001D03*
X186440001Y-47200001D03*
%TD*%
D16*
%TO.C,C18*%
X196400000Y-79000002D03*
X196400000Y-80000000D03*
%TD*%
D44*
%TO.C,TP7*%
X193800000Y-50700000D03*
%TD*%
%TO.C,TP6*%
X193650000Y-62750000D03*
%TD*%
D42*
%TO.C,R32*%
X186625001Y-79000000D03*
X187624999Y-79000000D03*
%TD*%
D45*
%TO.C,C69*%
X183780000Y-63825000D03*
X180820000Y-63825000D03*
%TD*%
%LPD*%
M02*
